kMon80bV8.ufo
<glyph name="greater" format="2">
  <advance width="1276"/>
  <unicode hex="003E"/>
  <outline>
    <contour>
      <point x="1209" y="765" type="line"/>
      <point x="70" y="1259" type="line"/>
      <point x="70" y="1116" type="line"/>
      <point x="949" y="730" type="line"/>
      <point x="70" y="366" type="line"/>
      <point x="70" y="219" type="line"/>
      <point x="1209" y="693" type="line"/>
    </contour>
  </outline>
</glyph>
<glyph name="K" format="2">
  <advance width="1670"/>
  <unicode hex="004B"/>
  <outline>
    <contour>
      <point x="240" y="242" type="line"/>
      <point x="240" y="108"/>
      <point x="186" y="75"/>
      <point x="40" y="75" type="curve"/>
      <point x="40" y="0" type="line"/>
      <point x="728" y="0" type="line"/>
      <point x="728" y="75" type="line"/>
      <point x="586" y="75"/>
      <point x="531" y="108"/>
      <point x="531" y="242" type="curve"/>
      <point x="531" y="647" type="line"/>
      <point x="944" y="232" type="line"/>
      <point x="987" y="188"/>
      <point x="1012" y="150"/>
      <point x="1012" y="128" type="curve"/>
      <point x="1012" y="102"/>
      <point x="990" y="75"/>
      <point x="914" y="75" type="curve"/>
      <point x="914" y="0" type="line"/>
      <point x="1645" y="0" type="line"/>
      <point x="1645" y="75" type="line"/>
      <point x="1485" y="75"/>
      <point x="1448" y="93"/>
      <point x="1262" y="277" type="curve" smooth="yes"/>
      <point x="708" y="827" type="line"/>
      <point x="1109" y="1202" type="line"/>
      <point x="1228" y="1314"/>
      <point x="1302" y="1358"/>
      <point x="1404" y="1358" type="curve"/>
      <point x="1459" y="1358" type="line"/>
      <point x="1459" y="1437" type="line"/>
      <point x="863" y="1437" type="line"/>
      <point x="863" y="1362" type="line"/>
      <point x="973" y="1362"/>
      <point x="993" y="1343"/>
      <point x="993" y="1330" type="curve"/>
      <point x="993" y="1298"/>
      <point x="956" y="1259"/>
      <point x="927" y="1232" type="curve" smooth="yes"/>
      <point x="531" y="873" type="line"/>
      <point x="531" y="1196" type="line"/>
      <point x="531" y="1329"/>
      <point x="586" y="1362"/>
      <point x="728" y="1362" type="curve"/>
      <point x="728" y="1437" type="line"/>
      <point x="40" y="1437" type="line"/>
      <point x="40" y="1362" type="line"/>
      <point x="186" y="1362"/>
      <point x="240" y="1329"/>
      <point x="240" y="1196" type="curve"/>
    </contour>
  </outline>
</glyph>
<glyph name="j" format="2">
  <advance width="577"/>
  <unicode hex="006A"/>
  <outline>
    <contour>
      <point x="463" y="1004" type="line"/>
      <point x="360" y="1004" type="line"/>
      <point x="50" y="863" type="line"/>
      <point x="78" y="790" type="line"/>
      <point x="134" y="807"/>
      <point x="179" y="819"/>
      <point x="191" y="819" type="curve"/>
      <point x="212" y="819"/>
      <point x="212" y="778"/>
      <point x="212" y="683" type="curve"/>
      <point x="212" y="-185" type="line"/>
      <point x="212" y="-294"/>
      <point x="194" y="-329"/>
      <point x="164" y="-329" type="curve"/>
      <point x="148" y="-329"/>
      <point x="129" y="-302"/>
      <point x="111" y="-273" type="curve"/>
      <point x="88" y="-238"/>
      <point x="65" y="-205"/>
      <point x="1" y="-205" type="curve"/>
      <point x="-79" y="-205"/>
      <point x="-130" y="-241"/>
      <point x="-130" y="-305" type="curve"/>
      <point x="-130" y="-377"/>
      <point x="-49" y="-437"/>
      <point x="81" y="-437" type="curve"/>
      <point x="325" y="-437"/>
      <point x="463" y="-391"/>
      <point x="463" y="19" type="curve"/>
    </contour>
    <contour>
      <point x="197" y="1331" type="curve" smooth="yes"/>
      <point x="197" y="1254"/>
      <point x="260" y="1191"/>
      <point x="337" y="1191" type="curve" smooth="yes"/>
      <point x="414" y="1191"/>
      <point x="477" y="1254"/>
      <point x="477" y="1331" type="curve" smooth="yes"/>
      <point x="477" y="1408"/>
      <point x="414" y="1471"/>
      <point x="337" y="1471" type="curve" smooth="yes"/>
      <point x="260" y="1471"/>
      <point x="197" y="1408"/>
    </contour>
  </outline>
</glyph>
<glyph name="guillemotleft" format="2">
  <advance width="1276"/>
  <unicode hex="00AB"/>
  <outline>
    <contour>
      <point x="706" y="200" type="line"/>
      <point x="433" y="693" type="line"/>
      <point x="706" y="1182" type="line"/>
      <point x="569" y="1182" type="line"/>
      <point x="140" y="693" type="line"/>
      <point x="569" y="200" type="line"/>
    </contour>
    <contour>
      <point x="1136" y="200" type="line"/>
      <point x="863" y="693" type="line"/>
      <point x="1136" y="1182" type="line"/>
      <point x="999" y="1182" type="line"/>
      <point x="570" y="693" type="line"/>
      <point x="999" y="200" type="line"/>
    </contour>
  </outline>
</glyph>
<glyph name="twosuperior" format="2">
  <advance width="773"/>
  <unicode hex="00B2"/>
  <outline>
    <contour>
      <point x="50" y="688" type="line"/>
      <point x="647" y="688" type="line"/>
      <point x="723" y="884" type="line"/>
      <point x="593" y="884" type="line"/>
      <point x="571" y="833"/>
      <point x="531" y="822"/>
      <point x="487" y="822" type="curve"/>
      <point x="328" y="822" type="line"/>
      <point x="330" y="824"/>
      <point x="332" y="826"/>
      <point x="335" y="828" type="curve"/>
      <point x="335" y="827" type="line"/>
      <point x="471" y="935"/>
      <point x="669" y="1092"/>
      <point x="669" y="1243" type="curve"/>
      <point x="669" y="1382"/>
      <point x="559" y="1470"/>
      <point x="374" y="1470" type="curve"/>
      <point x="233" y="1470"/>
      <point x="105" y="1354"/>
      <point x="83" y="1216" type="curve"/>
      <point x="207" y="1216" type="line"/>
      <point x="232" y="1293"/>
      <point x="278" y="1333"/>
      <point x="337" y="1333" type="curve"/>
      <point x="406" y="1333"/>
      <point x="458" y="1282"/>
      <point x="458" y="1206" type="curve"/>
      <point x="458" y="1056"/>
      <point x="231" y="885"/>
      <point x="96" y="783" type="curve"/>
      <point x="85" y="774"/>
      <point x="60" y="756"/>
      <point x="50" y="748" type="curve"/>
    </contour>
  </outline>
</glyph>
<glyph name="guillemotright" format="2">
  <advance width="1276"/>
  <unicode hex="00BB"/>
  <outline>
    <contour>
      <point x="570" y="1182" type="line"/>
      <point x="843" y="689" type="line"/>
      <point x="570" y="200" type="line"/>
      <point x="707" y="200" type="line"/>
      <point x="1136" y="689" type="line"/>
      <point x="707" y="1182" type="line"/>
    </contour>
    <contour>
      <point x="140" y="1182" type="line"/>
      <point x="413" y="689" type="line"/>
      <point x="140" y="200" type="line"/>
      <point x="277" y="200" type="line"/>
      <point x="706" y="689" type="line"/>
      <point x="277" y="1182" type="line"/>
    </contour>
  </outline>
</glyph>
<glyph name="uni014E" format="2">
  <advance width="1622"/>
  <unicode hex="014E"/>
  <outline>
    <contour>
      <point x="1077" y="1833" type="line"/>
      <point x="1056" y="1780"/>
      <point x="959" y="1698"/>
      <point x="823" y="1698" type="curve"/>
      <point x="687" y="1698"/>
      <point x="589" y="1780"/>
      <point x="568" y="1833" type="curve"/>
      <point x="494" y="1833" type="line"/>
      <point x="517" y="1723"/>
      <point x="614" y="1519"/>
      <point x="823" y="1519" type="curve"/>
      <point x="1032" y="1519"/>
      <point x="1125" y="1723"/>
      <point x="1147" y="1833" type="curve"/>
    </contour>
    <contour>
      <point x="813" y="-32" type="curve" smooth="yes"/>
      <point x="1229" y="-32"/>
      <point x="1552" y="307"/>
      <point x="1552" y="726" type="curve"/>
      <point x="1552" y="1137"/>
      <point x="1229" y="1470"/>
      <point x="813" y="1470" type="curve"/>
      <point x="394" y="1470"/>
      <point x="70" y="1137"/>
      <point x="70" y="726" type="curve"/>
      <point x="70" y="307"/>
      <point x="394" y="-32"/>
    </contour>
    <contour>
      <point x="813" y="75" type="curve" smooth="yes"/>
      <point x="541" y="75"/>
      <point x="402" y="351"/>
      <point x="402" y="726" type="curve"/>
      <point x="402" y="1100"/>
      <point x="541" y="1362"/>
      <point x="813" y="1362" type="curve"/>
      <point x="1075" y="1362"/>
      <point x="1221" y="1100"/>
      <point x="1221" y="726" type="curve"/>
      <point x="1221" y="351"/>
      <point x="1075" y="75"/>
    </contour>
  </outline>
</glyph>
<glyph name="Zcaron" format="2">
  <advance width="1341"/>
  <unicode hex="017D"/>
  <outline>
    <contour>
      <point x="178" y="1437" type="line"/>
      <point x="142" y="1046" type="line"/>
      <point x="257" y="1046" type="line"/>
      <point x="290" y="1260"/>
      <point x="350" y="1318"/>
      <point x="525" y="1318" type="curve"/>
      <point x="905" y="1318" type="line"/>
      <point x="20" y="56" type="line"/>
      <point x="20" y="0" type="line"/>
      <point x="1239" y="0" type="line"/>
      <point x="1311" y="407" type="line"/>
      <point x="1198" y="407" type="line"/>
      <point x="1141" y="243"/>
      <point x="1026" y="120"/>
      <point x="904" y="120" type="curve"/>
      <point x="391" y="120" type="line"/>
      <point x="1321" y="1437" type="line"/>
    </contour>
    <contour>
      <point x="858" y="1460" type="line"/>
      <point x="1091" y="1769" type="line"/>
      <point x="987" y="1769" type="line"/>
      <point x="733" y="1631" type="line"/>
      <point x="480" y="1769" type="line"/>
      <point x="372" y="1769" type="line"/>
      <point x="609" y="1460" type="line"/>
    </contour>
  </outline>
</glyph>
<glyph name="uni01C1" format="2">
  <advance width="1020"/>
  <unicode hex="01C1"/>
  <outline>
    <contour>
      <point x="219" y="0" type="line"/>
      <point x="481" y="0" type="line"/>
      <point x="481" y="1579" type="line"/>
      <point x="219" y="1579" type="line"/>
    </contour>
    <contour>
      <point x="619" y="0" type="line"/>
      <point x="880" y="0" type="line"/>
      <point x="880" y="1579" type="line"/>
      <point x="619" y="1579" type="line"/>
    </contour>
  </outline>
</glyph>
<glyph name="uni01C3" format="2">
  <advance width="708"/>
  <unicode hex="01C3"/>
  <outline>
    <contour>
      <point x="333" y="300" type="line"/>
      <point x="489" y="300" type="line"/>
      <point x="551" y="617"/>
      <point x="569" y="995"/>
      <point x="569" y="1296" type="curve"/>
      <point x="569" y="1366"/>
      <point x="491" y="1435"/>
      <point x="393" y="1435" type="curve"/>
      <point x="297" y="1435"/>
      <point x="219" y="1366"/>
      <point x="219" y="1296" type="curve"/>
      <point x="219" y="995"/>
      <point x="236" y="622"/>
      <point x="294" y="315" type="curve"/>
    </contour>
    <contour>
      <point x="245" y="126" type="curve" smooth="yes"/>
      <point x="245" y="59"/>
      <point x="316" y="0"/>
      <point x="393" y="0" type="curve"/>
      <point x="473" y="0"/>
      <point x="543" y="59"/>
      <point x="543" y="126" type="curve"/>
      <point x="543" y="196"/>
      <point x="473" y="256"/>
      <point x="393" y="256" type="curve"/>
      <point x="316" y="256"/>
      <point x="245" y="196"/>
    </contour>
  </outline>
</glyph>
<glyph name="uni024F" format="2">
  <advance width="1123"/>
  <unicode hex="024F"/>
  <outline>
    <contour>
      <point x="60" y="653" type="line"/>
      <point x="60" y="531" type="line"/>
      <point x="1063" y="531" type="line"/>
      <point x="1063" y="653" type="line"/>
    </contour>
    <contour>
      <point x="448" y="-95" type="line"/>
      <point x="422" y="-154"/>
      <point x="389" y="-227"/>
      <point x="359" y="-227" type="curve"/>
      <point x="341" y="-227"/>
      <point x="328" y="-220"/>
      <point x="315" y="-212" type="curve"/>
      <point x="297" y="-201"/>
      <point x="278" y="-190"/>
      <point x="221" y="-190" type="curve"/>
      <point x="121" y="-190"/>
      <point x="79" y="-237"/>
      <point x="79" y="-305" type="curve"/>
      <point x="79" y="-381"/>
      <point x="160" y="-437"/>
      <point x="254" y="-437" type="curve"/>
      <point x="382" y="-437"/>
      <point x="517" y="-331"/>
      <point x="582" y="-174" type="curve"/>
      <point x="964" y="754" type="line" smooth="yes"/>
      <point x="1010" y="865"/>
      <point x="1026" y="907"/>
      <point x="1113" y="907" type="curve"/>
      <point x="1113" y="982" type="line"/>
      <point x="728" y="982" type="line"/>
      <point x="728" y="907" type="line"/>
      <point x="792" y="907"/>
      <point x="821" y="896"/>
      <point x="821" y="867" type="curve"/>
      <point x="821" y="842"/>
      <point x="812" y="811"/>
      <point x="796" y="772" type="curve" smooth="yes"/>
      <point x="637" y="376" type="line"/>
      <point x="468" y="724" type="line"/>
      <point x="444" y="772"/>
      <point x="422" y="817"/>
      <point x="422" y="853" type="curve"/>
      <point x="422" y="879"/>
      <point x="432" y="907"/>
      <point x="523" y="907" type="curve"/>
      <point x="523" y="982" type="line"/>
      <point x="10" y="982" type="line"/>
      <point x="10" y="907" type="line"/>
      <point x="81" y="907"/>
      <point x="149" y="837"/>
      <point x="225" y="674" type="curve"/>
      <point x="512" y="65" type="line"/>
    </contour>
  </outline>
</glyph>
<glyph name="uni0255" format="2">
  <advance width="1016"/>
  <unicode hex="0255"/>
  <outline>
    <contour>
      <point x="523" y="896" type="curve" smooth="yes"/>
      <point x="609" y="896"/>
      <point x="629" y="838"/>
      <point x="629" y="758" type="curve"/>
      <point x="629" y="698"/>
      <point x="685" y="633"/>
      <point x="769" y="633" type="curve"/>
      <point x="846" y="633"/>
      <point x="925" y="690"/>
      <point x="925" y="758" type="curve"/>
      <point x="925" y="896"/>
      <point x="770" y="1004"/>
      <point x="554" y="1004" type="curve"/>
      <point x="283" y="1004"/>
      <point x="65" y="766"/>
      <point x="65" y="467" type="curve"/>
      <point x="65" y="252"/>
      <point x="193" y="67"/>
      <point x="370" y="3" type="curve"/>
      <point x="366" y="-43"/>
      <point x="364" y="-85"/>
      <point x="364" y="-119" type="curve"/>
      <point x="364" y="-141"/>
      <point x="401" y="-182"/>
      <point x="454" y="-182" type="curve"/>
      <point x="508" y="-182"/>
      <point x="554" y="-161"/>
      <point x="554" y="-119" type="curve"/>
      <point x="554" y="-98"/>
      <point x="555" y="-63"/>
      <point x="557" y="-20" type="curve"/>
      <point x="791" y="-7"/>
      <point x="946" y="111"/>
      <point x="946" y="293" type="curve"/>
      <point x="946" y="418"/>
      <point x="833" y="513"/>
      <point x="692" y="513" type="curve"/>
      <point x="549" y="513"/>
      <point x="465" y="389"/>
      <point x="418" y="244" type="curve"/>
      <point x="354" y="323"/>
      <point x="316" y="448"/>
      <point x="316" y="588" type="curve"/>
      <point x="316" y="759"/>
      <point x="393" y="896"/>
    </contour>
    <contour>
      <point x="692" y="364" type="curve" smooth="yes"/>
      <point x="726" y="364"/>
      <point x="757" y="338"/>
      <point x="757" y="293" type="curve"/>
      <point x="757" y="219"/>
      <point x="707" y="163"/>
      <point x="582" y="162" type="curve"/>
      <point x="602" y="269"/>
      <point x="636" y="364"/>
    </contour>
  </outline>
</glyph>
<glyph name="uni0257" format="2">
  <advance width="1133"/>
  <unicode hex="0257"/>
  <outline>
    <contour>
      <point x="714" y="1104" type="curve"/>
      <point x="714" y="963" type="line"/>
      <point x="671" y="988"/>
      <point x="621" y="1004"/>
      <point x="557" y="1004" type="curve"/>
      <point x="288" y="1004"/>
      <point x="65" y="747"/>
      <point x="65" y="479" type="curve"/>
      <point x="65" y="209"/>
      <point x="246" y="-22"/>
      <point x="469" y="-22" type="curve"/>
      <point x="555" y="-22"/>
      <point x="640" y="5"/>
      <point x="714" y="49" type="curve"/>
      <point x="714" y="-22" type="line"/>
      <point x="817" y="-22" type="line"/>
      <point x="1133" y="123" type="line"/>
      <point x="1097" y="200" type="line"/>
      <point x="1047" y="167"/>
      <point x="1022" y="159"/>
      <point x="1013" y="159" type="curve"/>
      <point x="974" y="159"/>
      <point x="964" y="191"/>
      <point x="964" y="301" type="curve"/>
      <point x="964" y="1202" type="line"/>
      <point x="964" y="1291"/>
      <point x="1015" y="1362"/>
      <point x="1067" y="1362" type="curve"/>
      <point x="1107" y="1362"/>
      <point x="1128" y="1320"/>
      <point x="1149" y="1280" type="curve"/>
      <point x="1174" y="1231"/>
      <point x="1200" y="1183"/>
      <point x="1292" y="1183" type="curve"/>
      <point x="1364" y="1183"/>
      <point x="1416" y="1216"/>
      <point x="1416" y="1283" type="curve"/>
      <point x="1416" y="1413"/>
      <point x="1268" y="1470"/>
      <point x="1074" y="1470" type="curve"/>
      <point x="874" y="1470"/>
      <point x="714" y="1308"/>
    </contour>
    <contour>
      <point x="568" y="123" type="curve" smooth="yes"/>
      <point x="437" y="123"/>
      <point x="335" y="307"/>
      <point x="335" y="533" type="curve"/>
      <point x="335" y="746"/>
      <point x="426" y="896"/>
      <point x="539" y="896" type="curve"/>
      <point x="626" y="896"/>
      <point x="714" y="802"/>
      <point x="714" y="664" type="curve"/>
      <point x="714" y="199" type="line"/>
      <point x="672" y="158"/>
      <point x="617" y="123"/>
    </contour>
  </outline>
</glyph>
<glyph name="uni025A" format="2">
  <advance width="1229"/>
  <unicode hex="025A"/>
  <outline>
    <contour>
      <point x="513" y="1004" type="curve" smooth="yes"/>
      <point x="318" y="1004"/>
      <point x="118" y="829"/>
      <point x="61" y="617" type="curve"/>
      <point x="177" y="599" type="line"/>
      <point x="208" y="722"/>
      <point x="340" y="819"/>
      <point x="465" y="819" type="curve"/>
      <point x="525" y="819"/>
      <point x="583" y="783"/>
      <point x="630" y="725" type="curve"/>
      <point x="91" y="384" type="line"/>
      <point x="91" y="161"/>
      <point x="263" y="-22"/>
      <point x="513" y="-22" type="curve"/>
      <point x="791" y="-22"/>
      <point x="974" y="208"/>
      <point x="974" y="525" type="curve"/>
      <point x="974" y="614"/>
      <point x="948" y="701"/>
      <point x="903" y="776" type="curve"/>
      <point x="984" y="827" type="line"/>
      <point x="984" y="744" type="line"/>
      <point x="984" y="660"/>
      <point x="1043" y="587"/>
      <point x="1155" y="587" type="curve"/>
      <point x="1277" y="587"/>
      <point x="1337" y="693"/>
      <point x="1345" y="789" type="curve"/>
      <point x="1238" y="849" type="line"/>
      <point x="1215" y="747"/>
      <point x="1194" y="681"/>
      <point x="1156" y="681" type="curve"/>
      <point x="1124" y="681"/>
      <point x="1119" y="735"/>
      <point x="1119" y="780" type="curve"/>
      <point x="1119" y="938" type="line"/>
      <point x="1040" y="982" type="line"/>
      <point x="843" y="859" type="line"/>
      <point x="763" y="948"/>
      <point x="645" y="1004"/>
    </contour>
    <contour>
      <point x="733" y="377" type="curve" smooth="yes"/>
      <point x="733" y="171"/>
      <point x="634" y="86"/>
      <point x="563" y="86" type="curve"/>
      <point x="500" y="86"/>
      <point x="374" y="125"/>
      <point x="370" y="441" type="curve"/>
      <point x="682" y="638" type="line"/>
      <point x="712" y="572"/>
      <point x="733" y="480"/>
    </contour>
  </outline>
</glyph>
<glyph name="uni0261" format="2">
  <advance width="1131"/>
  <unicode hex="0261"/>
  <outline>
    <contour>
      <point x="964" y="1046" type="line"/>
      <point x="741" y="946" type="line"/>
      <point x="694" y="981"/>
      <point x="634" y="1004"/>
      <point x="557" y="1004" type="curve"/>
      <point x="288" y="1004"/>
      <point x="65" y="747"/>
      <point x="65" y="479" type="curve"/>
      <point x="65" y="209"/>
      <point x="246" y="-22"/>
      <point x="469" y="-22" type="curve"/>
      <point x="555" y="-22"/>
      <point x="640" y="5"/>
      <point x="714" y="49" type="curve"/>
      <point x="714" y="-20" type="line"/>
      <point x="714" y="-192"/>
      <point x="670" y="-311"/>
      <point x="542" y="-311" type="curve"/>
      <point x="437" y="-311"/>
      <point x="400" y="-253"/>
      <point x="400" y="-173" type="curve"/>
      <point x="400" y="-113"/>
      <point x="345" y="-49"/>
      <point x="263" y="-49" type="curve"/>
      <point x="183" y="-49"/>
      <point x="105" y="-105"/>
      <point x="105" y="-173" type="curve"/>
      <point x="105" y="-310"/>
      <point x="261" y="-437"/>
      <point x="477" y="-437" type="curve"/>
      <point x="746" y="-437"/>
      <point x="964" y="-293"/>
      <point x="964" y="9" type="curve"/>
    </contour>
    <contour>
      <point x="568" y="123" type="curve" smooth="yes"/>
      <point x="437" y="123"/>
      <point x="335" y="307"/>
      <point x="335" y="533" type="curve"/>
      <point x="335" y="746"/>
      <point x="426" y="896"/>
      <point x="539" y="896" type="curve"/>
      <point x="626" y="896"/>
      <point x="714" y="802"/>
      <point x="714" y="664" type="curve"/>
      <point x="714" y="199" type="line"/>
      <point x="672" y="158"/>
      <point x="617" y="123"/>
    </contour>
  </outline>
</glyph>
<glyph name="uni0265" format="2">
  <advance width="1125"/>
  <unicode hex="0265"/>
  <outline>
    <contour>
      <point x="710" y="-466" type="line"/>
      <point x="807" y="-466" type="line"/>
      <point x="1125" y="-329" type="line"/>
      <point x="1096" y="-252" type="line"/>
      <point x="1033" y="-270"/>
      <point x="994" y="-281"/>
      <point x="983" y="-281" type="curve"/>
      <point x="961" y="-281"/>
      <point x="961" y="-240"/>
      <point x="961" y="-148" type="curve"/>
      <point x="961" y="766" type="line"/>
      <point x="961" y="883"/>
      <point x="983" y="928"/>
      <point x="1107" y="928" type="curve"/>
      <point x="1107" y="1004" type="line"/>
      <point x="560" y="1004" type="line"/>
      <point x="560" y="928" type="line"/>
      <point x="684" y="928"/>
      <point x="710" y="883"/>
      <point x="710" y="766" type="curve"/>
      <point x="710" y="284" type="line"/>
      <point x="639" y="213"/>
      <point x="561" y="166"/>
      <point x="510" y="166" type="curve"/>
      <point x="453" y="166"/>
      <point x="412" y="225"/>
      <point x="412" y="337" type="curve"/>
      <point x="412" y="766" type="line"/>
      <point x="412" y="883"/>
      <point x="433" y="928"/>
      <point x="557" y="928" type="curve"/>
      <point x="557" y="1004" type="line"/>
      <point x="11" y="1004" type="line"/>
      <point x="11" y="928" type="line"/>
      <point x="135" y="928"/>
      <point x="160" y="883"/>
      <point x="160" y="766" type="curve"/>
      <point x="160" y="306" type="line"/>
      <point x="160" y="136"/>
      <point x="272" y="0"/>
      <point x="414" y="0" type="curve"/>
      <point x="519" y="0"/>
      <point x="619" y="42"/>
      <point x="710" y="125" type="curve"/>
    </contour>
  </outline>
</glyph>
<glyph name="uni026A" format="2">
  <advance width="788"/>
  <unicode hex="026A"/>
  <outline>
    <contour>
      <point x="247" y="242" type="line"/>
      <point x="247" y="108"/>
      <point x="196" y="75"/>
      <point x="50" y="75" type="curve"/>
      <point x="50" y="0" type="line"/>
      <point x="738" y="0" type="line"/>
      <point x="738" y="75" type="line"/>
      <point x="596" y="75"/>
      <point x="542" y="108"/>
      <point x="542" y="242" type="curve"/>
      <point x="542" y="762" type="line"/>
      <point x="542" y="896"/>
      <point x="596" y="928"/>
      <point x="738" y="928" type="curve"/>
      <point x="738" y="1004" type="line"/>
      <point x="50" y="1004" type="line"/>
      <point x="50" y="928" type="line"/>
      <point x="196" y="928"/>
      <point x="247" y="896"/>
      <point x="247" y="762" type="curve"/>
    </contour>
  </outline>
</glyph>
<glyph name="uni026E" format="2">
  <advance width="1224"/>
  <unicode hex="026E"/>
  <outline>
    <contour>
      <point x="1063" y="925" type="line"/>
      <point x="1063" y="982" type="line"/>
      <point x="451" y="982" type="line"/>
      <point x="451" y="1470" type="line"/>
      <point x="353" y="1470" type="line"/>
      <point x="37" y="1332" type="line"/>
      <point x="65" y="1255" type="line"/>
      <point x="125" y="1274"/>
      <point x="165" y="1285"/>
      <point x="178" y="1285" type="curve"/>
      <point x="200" y="1285"/>
      <point x="200" y="1244"/>
      <point x="200" y="1152" type="curve"/>
      <point x="200" y="238" type="line"/>
      <point x="200" y="121"/>
      <point x="178" y="75"/>
      <point x="54" y="75" type="curve"/>
      <point x="54" y="0" type="line"/>
      <point x="600" y="0" type="line"/>
      <point x="600" y="75" type="line"/>
      <point x="477" y="75"/>
      <point x="451" y="121"/>
      <point x="451" y="238" type="curve"/>
      <point x="451" y="390" type="line"/>
      <point x="488" y="348" type="line"/>
      <point x="558" y="391"/>
      <point x="607" y="405"/>
      <point x="645" y="405" type="curve"/>
      <point x="799" y="405"/>
      <point x="903" y="244"/>
      <point x="903" y="16" type="curve"/>
      <point x="903" y="-192"/>
      <point x="776" y="-329"/>
      <point x="641" y="-329" type="curve"/>
      <point x="516" y="-329"/>
      <point x="462" y="-254"/>
      <point x="462" y="-155" type="curve"/>
      <point x="462" y="-97"/>
      <point x="406" y="-30"/>
      <point x="324" y="-30" type="curve"/>
      <point x="245" y="-30"/>
      <point x="167" y="-87"/>
      <point x="167" y="-155" type="curve"/>
      <point x="167" y="-292"/>
      <point x="340" y="-437"/>
      <point x="612" y="-437" type="curve"/>
      <point x="957" y="-437"/>
      <point x="1154" y="-199"/>
      <point x="1154" y="100" type="curve"/>
      <point x="1154" y="341"/>
      <point x="991" y="546"/>
      <point x="778" y="583" type="curve"/>
    </contour>
    <contour>
      <point x="778" y="801" type="line"/>
      <point x="451" y="406" type="line"/>
      <point x="451" y="801" type="line"/>
    </contour>
  </outline>
</glyph>
<glyph name="uni026F" format="2">
  <advance width="1741"/>
  <unicode hex="026F"/>
  <outline>
    <contour>
      <point x="1555" y="766" type="line"/>
      <point x="1555" y="883"/>
      <point x="1580" y="928"/>
      <point x="1703" y="928" type="curve"/>
      <point x="1703" y="1004" type="line"/>
      <point x="1158" y="1004" type="line"/>
      <point x="1158" y="928" type="line"/>
      <point x="1282" y="928"/>
      <point x="1304" y="883"/>
      <point x="1304" y="766" type="curve"/>
      <point x="1304" y="283" type="line"/>
      <point x="1253" y="219"/>
      <point x="1167" y="166"/>
      <point x="1099" y="166" type="curve"/>
      <point x="1040" y="166"/>
      <point x="986" y="245"/>
      <point x="986" y="343" type="curve"/>
      <point x="986" y="766" type="line"/>
      <point x="986" y="883"/>
      <point x="1008" y="928"/>
      <point x="1135" y="928" type="curve"/>
      <point x="1135" y="1004" type="line"/>
      <point x="587" y="1004" type="line"/>
      <point x="587" y="928" type="line"/>
      <point x="710" y="928"/>
      <point x="735" y="883"/>
      <point x="735" y="766" type="curve"/>
      <point x="735" y="282" type="line"/>
      <point x="692" y="218"/>
      <point x="603" y="166"/>
      <point x="531" y="166" type="curve"/>
      <point x="470" y="166"/>
      <point x="415" y="245"/>
      <point x="415" y="343" type="curve"/>
      <point x="415" y="766" type="line"/>
      <point x="415" y="883"/>
      <point x="440" y="928"/>
      <point x="563" y="928" type="curve"/>
      <point x="563" y="1004" type="line"/>
      <point x="18" y="1004" type="line"/>
      <point x="18" y="928" type="line"/>
      <point x="142" y="928"/>
      <point x="167" y="883"/>
      <point x="167" y="766" type="curve"/>
      <point x="167" y="314" type="line"/>
      <point x="167" y="144"/>
      <point x="287" y="0"/>
      <point x="441" y="0" type="curve"/>
      <point x="559" y="0"/>
      <point x="688" y="58"/>
      <point x="766" y="142" type="curve"/>
      <point x="815" y="56"/>
      <point x="920" y="0"/>
      <point x="1016" y="0" type="curve"/>
      <point x="1106" y="0"/>
      <point x="1216" y="55"/>
      <point x="1304" y="131" type="curve"/>
      <point x="1304" y="0" type="line"/>
      <point x="1408" y="0" type="line"/>
      <point x="1716" y="141" type="line"/>
      <point x="1691" y="208" type="line"/>
      <point x="1685" y="207"/>
      <point x="1640" y="198"/>
      <point x="1635" y="197" type="curve"/>
      <point x="1609" y="191"/>
      <point x="1590" y="185"/>
      <point x="1577" y="185" type="curve"/>
      <point x="1555" y="185"/>
      <point x="1555" y="226"/>
      <point x="1555" y="321" type="curve"/>
    </contour>
  </outline>
</glyph>
<glyph name="uni0278" format="2">
  <advance width="1186"/>
  <unicode hex="0278"/>
  <outline>
    <contour>
      <point x="453" y="-213" type="line"/>
      <point x="453" y="-347"/>
      <point x="382" y="-379"/>
      <point x="237" y="-379" type="curve"/>
      <point x="237" y="-455" type="line"/>
      <point x="925" y="-455" type="line"/>
      <point x="925" y="-379" type="line"/>
      <point x="782" y="-379"/>
      <point x="707" y="-347"/>
      <point x="707" y="-213" type="curve"/>
      <point x="707" y="1" type="line"/>
      <point x="915" y="68"/>
      <point x="1096" y="277"/>
      <point x="1096" y="519" type="curve"/>
      <point x="1096" y="738"/>
      <point x="915" y="923"/>
      <point x="707" y="984" type="curve"/>
      <point x="707" y="1196" type="line"/>
      <point x="707" y="1329"/>
      <point x="782" y="1362"/>
      <point x="925" y="1362" type="curve"/>
      <point x="925" y="1437" type="line"/>
      <point x="237" y="1437" type="line"/>
      <point x="237" y="1362" type="line"/>
      <point x="382" y="1362"/>
      <point x="453" y="1329"/>
      <point x="453" y="1196" type="curve"/>
      <point x="453" y="982" type="line"/>
      <point x="245" y="916"/>
      <point x="65" y="716"/>
      <point x="65" y="479" type="curve"/>
      <point x="65" y="255"/>
      <point x="246" y="61"/>
      <point x="453" y="-1" type="curve"/>
    </contour>
    <contour>
      <point x="833" y="454" type="curve" smooth="yes"/>
      <point x="833" y="323"/>
      <point x="769" y="229"/>
      <point x="707" y="173" type="curve"/>
      <point x="707" y="808" type="line"/>
      <point x="776" y="726"/>
      <point x="833" y="621"/>
    </contour>
    <contour>
      <point x="329" y="535" type="curve" smooth="yes"/>
      <point x="329" y="666"/>
      <point x="394" y="754"/>
      <point x="453" y="809" type="curve"/>
      <point x="453" y="194" type="line"/>
      <point x="390" y="277"/>
      <point x="329" y="368"/>
    </contour>
  </outline>
</glyph>
<glyph name="uni02B0" format="2">
  <advance width="784"/>
  <unicode hex="02B0"/>
  <outline>
    <contour>
      <point x="312" y="1754" type="line"/>
      <point x="229" y="1754" type="line"/>
      <point x="10" y="1658" type="line"/>
      <point x="31" y="1599" type="line"/>
      <point x="39" y="1601"/>
      <point x="89" y="1613"/>
      <point x="95" y="1615" type="curve"/>
      <point x="92" y="1615" type="line"/>
      <point x="105" y="1618"/>
      <point x="115" y="1621"/>
      <point x="118" y="1621" type="curve"/>
      <point x="118" y="936" type="line"/>
      <point x="118" y="863"/>
      <point x="104" y="835"/>
      <point x="22" y="835" type="curve"/>
      <point x="22" y="772" type="line"/>
      <point x="774" y="772" type="line"/>
      <point x="774" y="835" type="line"/>
      <point x="692" y="835"/>
      <point x="676" y="863"/>
      <point x="676" y="936" type="curve"/>
      <point x="676" y="1237" type="line"/>
      <point x="676" y="1353"/>
      <point x="593" y="1447"/>
      <point x="494" y="1447" type="curve"/>
      <point x="428" y="1447"/>
      <point x="367" y="1425"/>
      <point x="312" y="1382" type="curve"/>
    </contour>
    <contour>
      <point x="312" y="936" type="curve"/>
      <point x="312" y="1251" type="line"/>
      <point x="355" y="1294"/>
      <point x="401" y="1323"/>
      <point x="429" y="1323" type="curve"/>
      <point x="460" y="1323"/>
      <point x="483" y="1287"/>
      <point x="483" y="1219" type="curve"/>
      <point x="483" y="936" type="line"/>
      <point x="483" y="867"/>
      <point x="469" y="838"/>
      <point x="397" y="835" type="curve"/>
      <point x="327" y="838"/>
      <point x="312" y="867"/>
    </contour>
  </outline>
</glyph>
<glyph name="uni02B2" format="2">
  <advance width="389"/>
  <unicode hex="02B2"/>
  <outline>
    <contour>
      <point x="331" y="1449" type="line"/>
      <point x="246" y="1449" type="line"/>
      <point x="29" y="1348" type="line"/>
      <point x="54" y="1292" type="line"/>
      <point x="57" y="1293"/>
      <point x="98" y="1304"/>
      <point x="102" y="1305" type="curve"/>
      <point x="119" y="1308"/>
      <point x="132" y="1312"/>
      <point x="138" y="1312" type="curve"/>
      <point x="138" y="657" type="line"/>
      <point x="138" y="589"/>
      <point x="131" y="567"/>
      <point x="121" y="567" type="curve"/>
      <point x="120" y="567"/>
      <point x="109" y="583"/>
      <point x="98" y="599" type="curve"/>
      <point x="82" y="625"/>
      <point x="64" y="648"/>
      <point x="12" y="648" type="curve"/>
      <point x="-49" y="648"/>
      <point x="-88" y="624"/>
      <point x="-88" y="576" type="curve"/>
      <point x="-88" y="526"/>
      <point x="-28" y="483"/>
      <point x="66" y="483" type="curve"/>
      <point x="234" y="483"/>
      <point x="331" y="514"/>
      <point x="331" y="792" type="curve"/>
    </contour>
    <contour>
      <point x="233" y="1756" type="curve" smooth="yes"/>
      <point x="179" y="1756"/>
      <point x="129" y="1718"/>
      <point x="129" y="1672" type="curve"/>
      <point x="129" y="1630"/>
      <point x="179" y="1592"/>
      <point x="233" y="1592" type="curve"/>
      <point x="290" y="1592"/>
      <point x="339" y="1630"/>
      <point x="339" y="1672" type="curve"/>
      <point x="339" y="1718"/>
      <point x="290" y="1756"/>
    </contour>
  </outline>
</glyph>
<glyph name="uni02B7" format="2">
  <advance width="1117"/>
  <unicode hex="02B7"/>
  <outline>
    <contour>
      <point x="10" y="1449" type="line"/>
      <point x="10" y="1399" type="line"/>
      <point x="86" y="1399"/>
      <point x="96" y="1386"/>
      <point x="140" y="1272" type="curve" smooth="yes"/>
      <point x="335" y="772" type="line"/>
      <point x="412" y="772" type="line"/>
      <point x="555" y="1142" type="line"/>
      <point x="698" y="772" type="line"/>
      <point x="776" y="772" type="line"/>
      <point x="961" y="1279" type="line"/>
      <point x="960" y="1279" type="line"/>
      <point x="999" y="1384"/>
      <point x="1043" y="1399"/>
      <point x="1107" y="1399" type="curve"/>
      <point x="1107" y="1449" type="line"/>
      <point x="817" y="1449" type="line"/>
      <point x="817" y="1399" type="line"/>
      <point x="865" y="1399"/>
      <point x="879" y="1388"/>
      <point x="879" y="1370" type="curve" smooth="yes"/>
      <point x="879" y="1352"/>
      <point x="866" y="1311"/>
      <point x="855" y="1280" type="curve" smooth="yes"/>
      <point x="771" y="1044" type="line"/>
      <point x="674" y="1289" type="line" smooth="yes"/>
      <point x="661" y="1322"/>
      <point x="653" y="1352"/>
      <point x="653" y="1365" type="curve" smooth="yes"/>
      <point x="653" y="1387"/>
      <point x="692" y="1399"/>
      <point x="741" y="1399" type="curve"/>
      <point x="741" y="1449" type="line"/>
      <point x="366" y="1449" type="line"/>
      <point x="366" y="1399" type="line"/>
      <point x="438" y="1399"/>
      <point x="480" y="1338"/>
      <point x="491" y="1308" type="curve" smooth="yes"/>
      <point x="502" y="1276" type="line"/>
      <point x="409" y="1040" type="line"/>
      <point x="310" y="1288" type="line" smooth="yes"/>
      <point x="298" y="1318"/>
      <point x="288" y="1354"/>
      <point x="288" y="1378" type="curve"/>
      <point x="288" y="1393"/>
      <point x="304" y="1399"/>
      <point x="341" y="1399" type="curve"/>
      <point x="341" y="1449" type="line"/>
    </contour>
  </outline>
</glyph>
<glyph name="uni02BC" format="2">
  <advance width="618"/>
  <unicode hex="02BC"/>
  <outline>
    <contour>
      <point x="140" y="866" type="line"/>
      <point x="357" y="884"/>
      <point x="548" y="1033"/>
      <point x="548" y="1232" type="curve"/>
      <point x="548" y="1363"/>
      <point x="445" y="1470"/>
      <point x="322" y="1470" type="curve"/>
      <point x="219" y="1470"/>
      <point x="140" y="1406"/>
      <point x="140" y="1323" type="curve"/>
      <point x="140" y="1243"/>
      <point x="205" y="1183"/>
      <point x="281" y="1183" type="curve"/>
      <point x="331" y="1183"/>
      <point x="349" y="1195"/>
      <point x="369" y="1209" type="curve"/>
      <point x="369" y="1082"/>
      <point x="268" y="987"/>
      <point x="140" y="951" type="curve"/>
    </contour>
  </outline>
</glyph>
<glyph name="uni02E1" format="2">
  <advance width="438"/>
  <unicode hex="02E1"/>
  <outline>
    <contour>
      <point x="319" y="1754" type="line"/>
      <point x="237" y="1754" type="line"/>
      <point x="20" y="1658" type="line"/>
      <point x="44" y="1597" type="line"/>
      <point x="85" y="1610"/>
      <point x="121" y="1621"/>
      <point x="127" y="1621" type="curve"/>
      <point x="127" y="936" type="line"/>
      <point x="127" y="863"/>
      <point x="112" y="835"/>
      <point x="31" y="835" type="curve"/>
      <point x="31" y="772" type="line"/>
      <point x="418" y="772" type="line"/>
      <point x="418" y="835" type="line"/>
      <point x="336" y="835"/>
      <point x="319" y="863"/>
      <point x="319" y="936" type="curve"/>
    </contour>
  </outline>
</glyph>
<glyph name="uni0305" format="2">
  <unicode hex="0305"/>
  <outline>
    <contour>
      <point x="-1046" y="1504" type="line"/>
      <point x="-1046" y="1336" type="line"/>
      <point x="0" y="1336" type="line"/>
      <point x="0" y="1504" type="line"/>
    </contour>
  </outline>
</glyph>
<glyph name="uni0319" format="2">
  <unicode hex="0319"/>
  <outline>
    <contour>
      <point x="-503" y="-89" type="line"/>
      <point x="-692" y="-89" type="line"/>
      <point x="-692" y="-491" type="line"/>
      <point x="-503" y="-491" type="line"/>
      <point x="-503" y="-364" type="line"/>
      <point x="-284" y="-364" type="line"/>
      <point x="-284" y="-216" type="line"/>
      <point x="-503" y="-216" type="line"/>
    </contour>
  </outline>
</glyph>
<glyph name="uni0325" format="2">
  <advance width="2"/>
  <unicode hex="0325"/>
  <outline>
    <contour>
      <point x="-793" y="-367" type="curve" smooth="yes"/>
      <point x="-793" y="-525"/>
      <point x="-658" y="-650"/>
      <point x="-488" y="-650" type="curve"/>
      <point x="-318" y="-650"/>
      <point x="-185" y="-525"/>
      <point x="-185" y="-367" type="curve"/>
      <point x="-185" y="-208"/>
      <point x="-318" y="-83"/>
      <point x="-488" y="-83" type="curve"/>
      <point x="-658" y="-83"/>
      <point x="-793" y="-208"/>
    </contour>
    <contour>
      <point x="-628" y="-367" type="curve" smooth="yes"/>
      <point x="-628" y="-278"/>
      <point x="-565" y="-206"/>
      <point x="-488" y="-206" type="curve"/>
      <point x="-412" y="-206"/>
      <point x="-348" y="-278"/>
      <point x="-348" y="-367" type="curve"/>
      <point x="-348" y="-453"/>
      <point x="-412" y="-527"/>
      <point x="-488" y="-527" type="curve"/>
      <point x="-565" y="-527"/>
      <point x="-628" y="-453"/>
    </contour>
  </outline>
</glyph>
<glyph name="uni0326" format="2">
  <unicode hex="0326"/>
  <outline>
    <contour>
      <point x="-639" y="-486" type="line"/>
      <point x="-492" y="-475"/>
      <point x="-365" y="-382"/>
      <point x="-365" y="-258" type="curve"/>
      <point x="-365" y="-175"/>
      <point x="-432" y="-107"/>
      <point x="-514" y="-107" type="curve"/>
      <point x="-585" y="-107"/>
      <point x="-639" y="-149"/>
      <point x="-639" y="-203" type="curve"/>
      <point x="-639" y="-255"/>
      <point x="-593" y="-295"/>
      <point x="-539" y="-295" type="curve"/>
      <point x="-520" y="-295"/>
      <point x="-509" y="-292"/>
      <point x="-501" y="-289" type="curve"/>
      <point x="-501" y="-345"/>
      <point x="-562" y="-400"/>
      <point x="-639" y="-422" type="curve"/>
    </contour>
  </outline>
</glyph>
<glyph name="uni032B" format="2">
  <unicode hex="032B"/>
  <outline>
    <contour>
      <point x="-229" y="-107" type="line"/>
      <point x="-251" y="-161"/>
      <point x="-279" y="-216"/>
      <point x="-324" y="-216" type="curve"/>
      <point x="-354" y="-216"/>
      <point x="-389" y="-155"/>
      <point x="-412" y="-107" type="curve"/>
      <point x="-527" y="-107" type="line"/>
      <point x="-548" y="-155"/>
      <point x="-575" y="-216"/>
      <point x="-616" y="-216" type="curve"/>
      <point x="-649" y="-216"/>
      <point x="-689" y="-161"/>
      <point x="-711" y="-107" type="curve"/>
      <point x="-823" y="-107" type="line"/>
      <point x="-801" y="-215"/>
      <point x="-733" y="-346"/>
      <point x="-616" y="-346" type="curve"/>
      <point x="-544" y="-346"/>
      <point x="-497" y="-312"/>
      <point x="-465" y="-265" type="curve"/>
      <point x="-431" y="-312"/>
      <point x="-383" y="-346"/>
      <point x="-324" y="-346" type="curve"/>
      <point x="-183" y="-346"/>
      <point x="-139" y="-215"/>
      <point x="-117" y="-107" type="curve"/>
    </contour>
  </outline>
</glyph>
<glyph name="uni0338" format="2">
  <unicode hex="0338"/>
  <outline>
    <contour>
      <point x="-1146" y="-292" type="line"/>
      <point x="-1000" y="-376" type="line"/>
      <point x="0" y="1356" type="line"/>
      <point x="-146" y="1440" type="line"/>
    </contour>
  </outline>
</glyph>
<glyph name="uni033A" format="2">
  <unicode hex="033A"/>
  <outline>
    <contour>
      <point x="-593" y="-107" type="line"/>
      <point x="-783" y="-107" type="line"/>
      <point x="-783" y="-510" type="line"/>
      <point x="-157" y="-510" type="line"/>
      <point x="-157" y="-107" type="line"/>
      <point x="-346" y="-107" type="line"/>
      <point x="-346" y="-362" type="line"/>
      <point x="-593" y="-362" type="line"/>
    </contour>
  </outline>
</glyph>
<glyph name="theta" format="2">
  <advance width="1156"/>
  <unicode hex="03B8"/>
  <outline>
    <contour>
      <point x="577" y="-32" type="curve" smooth="yes"/>
      <point x="881" y="-32"/>
      <point x="1086" y="285"/>
      <point x="1086" y="726" type="curve"/>
      <point x="1086" y="1133"/>
      <point x="881" y="1470"/>
      <point x="577" y="1470" type="curve"/>
      <point x="274" y="1470"/>
      <point x="67" y="1133"/>
      <point x="67" y="726" type="curve"/>
      <point x="67" y="285"/>
      <point x="274" y="-32"/>
    </contour>
    <contour>
      <point x="577" y="75" type="curve" smooth="yes"/>
      <point x="446" y="75"/>
      <point x="375" y="332"/>
      <point x="363" y="637" type="curve"/>
      <point x="790" y="637" type="line"/>
      <point x="780" y="332"/>
      <point x="709" y="75"/>
    </contour>
    <contour>
      <point x="577" y="1362" type="curve" smooth="yes"/>
      <point x="709" y="1362"/>
      <point x="780" y="1116"/>
      <point x="790" y="811" type="curve"/>
      <point x="363" y="811" type="line"/>
      <point x="375" y="1116"/>
      <point x="445" y="1362"/>
    </contour>
  </outline>
</glyph>
<glyph name="uni178B" format="2">
  <advance width="1538"/>
  <unicode hex="178B"/>
  <anchor x="1350" y="0" name="L"/>
  <anchor x="1350" y="1777" name="U"/>
  <anchor x="825" y="0" name="lm"/>
  <anchor x="825" y="1777" name="um"/>
  <outline>
    <contour>
      <point x="1350" y="870" type="line"/>
      <point x="1350" y="937"/>
      <point x="1279" y="997"/>
      <point x="1162" y="1057" type="curve"/>
      <point x="1110" y="1084"/>
      <point x="1009" y="1144"/>
      <point x="1009" y="1174" type="curve" smooth="yes"/>
      <point x="1009" y="1207"/>
      <point x="1031" y="1215"/>
      <point x="1076" y="1215" type="curve" smooth="yes"/>
      <point x="1166" y="1215"/>
      <point x="1249" y="1125"/>
      <point x="1327" y="1125" type="curve" smooth="yes"/>
      <point x="1444" y="1125"/>
      <point x="1519" y="1215"/>
      <point x="1519" y="1380" type="curve" smooth="yes"/>
      <point x="1519" y="1732"/>
      <point x="1226" y="1777"/>
      <point x="1129" y="1777" type="curve" smooth="yes"/>
      <point x="1054" y="1777"/>
      <point x="982" y="1759"/>
      <point x="982" y="1691" type="curve" smooth="yes"/>
      <point x="982" y="1631"/>
      <point x="1035" y="1594"/>
      <point x="1125" y="1570" type="curve" smooth="yes"/>
      <point x="1252" y="1537"/>
      <point x="1376" y="1494"/>
      <point x="1376" y="1350" type="curve"/>
      <point x="1290" y="1350"/>
      <point x="1230" y="1440"/>
      <point x="1099" y="1440" type="curve"/>
      <point x="975" y="1440"/>
      <point x="881" y="1301"/>
      <point x="881" y="1181" type="curve" smooth="yes"/>
      <point x="881" y="1121"/>
      <point x="907" y="1072"/>
      <point x="1001" y="1009" type="curve" smooth="yes"/>
      <point x="1024" y="994"/>
      <point x="1050" y="964"/>
      <point x="1050" y="907" type="curve" smooth="yes"/>
      <point x="1050" y="225" type="line"/>
      <point x="1050" y="169"/>
      <point x="919" y="131"/>
      <point x="825" y="131" type="curve" smooth="yes"/>
      <point x="731" y="131"/>
      <point x="600" y="169"/>
      <point x="600" y="225" type="curve" smooth="yes"/>
      <point x="600" y="994" type="line"/>
      <point x="570" y="1080"/>
      <point x="446" y="1102"/>
      <point x="360" y="1102" type="curve"/>
      <point x="154" y="1057"/>
      <point x="75" y="922"/>
      <point x="75" y="840" type="curve"/>
      <point x="75" y="724"/>
      <point x="150" y="675"/>
      <point x="187" y="675" type="curve" smooth="yes"/>
      <point x="221" y="675"/>
      <point x="244" y="701"/>
      <point x="244" y="720" type="curve" smooth="yes"/>
      <point x="244" y="765"/>
      <point x="206" y="776"/>
      <point x="206" y="814" type="curve" smooth="yes"/>
      <point x="206" y="855"/>
      <point x="262" y="904"/>
      <point x="300" y="915" type="curve"/>
      <point x="300" y="206" type="line"/>
      <point x="300" y="94"/>
      <point x="600" y="0"/>
      <point x="825" y="0" type="curve"/>
      <point x="1050" y="0"/>
      <point x="1350" y="94"/>
      <point x="1350" y="206" type="curve" smooth="yes"/>
    </contour>
  </outline>
</glyph>
<glyph name="uni1796" format="2">
  <advance width="1500"/>
  <unicode hex="1796"/>
  <anchor x="1312" y="0" name="L"/>
  <anchor x="1312" y="1440" name="U"/>
  <anchor x="787" y="0" name="lm"/>
  <anchor x="787" y="1440" name="um"/>
  <outline>
    <contour>
      <point x="262" y="1170" type="curve"/>
      <point x="262" y="106" type="line"/>
      <point x="292" y="19"/>
      <point x="416" y="-3"/>
      <point x="502" y="-3" type="curve"/>
      <point x="701" y="34"/>
      <point x="787" y="199"/>
      <point x="787" y="289" type="curve" smooth="yes"/>
      <point x="787" y="399"/>
      <point x="671" y="452"/>
      <point x="562" y="467" type="curve"/>
      <point x="562" y="1125" type="line" smooth="yes"/>
      <point x="562" y="1159"/>
      <point x="570" y="1221"/>
      <point x="589" y="1221" type="curve" smooth="yes"/>
      <point x="622" y="1221"/>
      <point x="765" y="1092"/>
      <point x="787" y="1066" type="curve"/>
      <point x="809" y="1092"/>
      <point x="951" y="1221"/>
      <point x="985" y="1221" type="curve" smooth="yes"/>
      <point x="1004" y="1221"/>
      <point x="1012" y="1159"/>
      <point x="1012" y="1125" type="curve" smooth="yes"/>
      <point x="1012" y="0" type="line"/>
      <point x="1312" y="0" type="line"/>
      <point x="1312" y="1170" type="line" smooth="yes"/>
      <point x="1312" y="1290"/>
      <point x="1155" y="1440"/>
      <point x="1031" y="1440" type="curve" smooth="yes"/>
      <point x="979" y="1440"/>
      <point x="930" y="1406"/>
      <point x="877" y="1365" type="curve" smooth="yes"/>
      <point x="844" y="1339"/>
      <point x="810" y="1309"/>
      <point x="787" y="1286" type="curve"/>
      <point x="765" y="1309"/>
      <point x="731" y="1339"/>
      <point x="697" y="1365" type="curve" smooth="yes"/>
      <point x="645" y="1406"/>
      <point x="592" y="1440"/>
      <point x="544" y="1440" type="curve" smooth="yes"/>
      <point x="420" y="1440"/>
      <point x="262" y="1290"/>
    </contour>
    <contour>
      <point x="682" y="289" type="curve" smooth="yes"/>
      <point x="682" y="238"/>
      <point x="615" y="162"/>
      <point x="562" y="147" type="curve"/>
      <point x="562" y="381" type="line"/>
      <point x="610" y="379"/>
      <point x="682" y="344"/>
    </contour>
  </outline>
</glyph>
<glyph name="uni179C" format="2">
  <advance width="788"/>
  <unicode hex="179C"/>
  <anchor x="600" y="1793" name="U"/>
  <anchor x="337" y="0" name="lm"/>
  <anchor x="450" y="1793" name="um"/>
  <outline>
    <contour>
      <point x="600" y="870" type="line" smooth="yes"/>
      <point x="600" y="937"/>
      <point x="529" y="997"/>
      <point x="412" y="1057" type="curve" smooth="yes"/>
      <point x="360" y="1084"/>
      <point x="259" y="1144"/>
      <point x="259" y="1174" type="curve" smooth="yes"/>
      <point x="259" y="1207"/>
      <point x="281" y="1215"/>
      <point x="326" y="1215" type="curve" smooth="yes"/>
      <point x="416" y="1215"/>
      <point x="499" y="1125"/>
      <point x="577" y="1125" type="curve" smooth="yes"/>
      <point x="694" y="1125"/>
      <point x="769" y="1215"/>
      <point x="769" y="1380" type="curve" smooth="yes"/>
      <point x="769" y="1732"/>
      <point x="476" y="1777"/>
      <point x="379" y="1777" type="curve" smooth="yes"/>
      <point x="304" y="1777"/>
      <point x="232" y="1759"/>
      <point x="232" y="1691" type="curve" smooth="yes"/>
      <point x="232" y="1631"/>
      <point x="285" y="1594"/>
      <point x="375" y="1570" type="curve" smooth="yes"/>
      <point x="502" y="1537"/>
      <point x="626" y="1494"/>
      <point x="626" y="1350" type="curve"/>
      <point x="540" y="1350"/>
      <point x="480" y="1440"/>
      <point x="349" y="1440" type="curve" smooth="yes"/>
      <point x="225" y="1440"/>
      <point x="131" y="1301"/>
      <point x="131" y="1181" type="curve" smooth="yes"/>
      <point x="131" y="1121"/>
      <point x="157" y="1072"/>
      <point x="251" y="1009" type="curve" smooth="yes"/>
      <point x="274" y="994"/>
      <point x="300" y="964"/>
      <point x="300" y="907" type="curve" smooth="yes"/>
      <point x="300" y="470" type="line"/>
      <point x="191" y="455"/>
      <point x="75" y="402"/>
      <point x="75" y="292" type="curve" smooth="yes"/>
      <point x="75" y="202"/>
      <point x="161" y="37"/>
      <point x="360" y="0" type="curve"/>
      <point x="446" y="0"/>
      <point x="570" y="22"/>
      <point x="600" y="109" type="curve"/>
    </contour>
    <contour>
      <point x="180" y="292" type="curve" smooth="yes"/>
      <point x="180" y="347"/>
      <point x="252" y="382"/>
      <point x="300" y="384" type="curve"/>
      <point x="300" y="150" type="line"/>
      <point x="247" y="165"/>
      <point x="180" y="241"/>
    </contour>
  </outline>
</glyph>
<glyph name="uni17B3" format="2">
  <advance width="1425"/>
  <unicode hex="17B3"/>
  <anchor x="1275" y="-188" name="L"/>
  <anchor x="1275" y="1927" name="U"/>
  <anchor x="750" y="-188" name="lm"/>
  <anchor x="750" y="1927" name="um"/>
  <outline>
    <contour>
      <point x="581" y="1429" type="line"/>
      <point x="551" y="1429"/>
      <point x="442" y="1487"/>
      <point x="442" y="1554" type="curve" smooth="yes"/>
      <point x="442" y="1614"/>
      <point x="487" y="1633"/>
      <point x="532" y="1633" type="curve" smooth="yes"/>
      <point x="574" y="1633"/>
      <point x="622" y="1616"/>
      <point x="706" y="1557" type="curve" smooth="yes"/>
      <point x="780" y="1504"/>
      <point x="900" y="1451"/>
      <point x="1091" y="1451" type="curve"/>
      <point x="1117" y="1616"/>
      <point x="1196" y="1736"/>
      <point x="1294" y="1774" type="curve" smooth="yes"/>
      <point x="1350" y="1796"/>
      <point x="1365" y="1830"/>
      <point x="1365" y="1867" type="curve" smooth="yes"/>
      <point x="1365" y="1909"/>
      <point x="1324" y="1927"/>
      <point x="1271" y="1927" type="curve" smooth="yes"/>
      <point x="1166" y="1927"/>
      <point x="1024" y="1852"/>
      <point x="952" y="1639" type="curve"/>
      <point x="911" y="1654"/>
      <point x="877" y="1678"/>
      <point x="841" y="1703" type="curve" smooth="yes"/>
      <point x="750" y="1766"/>
      <point x="667" y="1815"/>
      <point x="506" y="1815" type="curve" smooth="yes"/>
      <point x="349" y="1815"/>
      <point x="206" y="1755"/>
      <point x="206" y="1609" type="curve" smooth="yes"/>
      <point x="206" y="1477"/>
      <point x="336" y="1406"/>
      <point x="419" y="1379" type="curve"/>
      <point x="307" y="1328"/>
      <point x="225" y="1242"/>
      <point x="225" y="1121" type="curve" smooth="yes"/>
      <point x="225" y="1042"/>
      <point x="244" y="956"/>
      <point x="340" y="888" type="curve" smooth="yes"/>
      <point x="397" y="847"/>
      <point x="465" y="844"/>
      <point x="517" y="844" type="curve" smooth="yes"/>
      <point x="626" y="844"/>
      <point x="735" y="900"/>
      <point x="735" y="986" type="curve" smooth="yes"/>
      <point x="735" y="1046"/>
      <point x="665" y="1091"/>
      <point x="563" y="1091" type="curve" smooth="yes"/>
      <point x="541" y="1091"/>
      <point x="522" y="1087"/>
      <point x="511" y="1087" type="curve"/>
      <point x="507" y="1099"/>
      <point x="507" y="1114"/>
      <point x="507" y="1129" type="curve" smooth="yes"/>
      <point x="507" y="1222"/>
      <point x="604" y="1290"/>
      <point x="739" y="1290" type="curve" smooth="yes"/>
      <point x="885" y="1290"/>
      <point x="975" y="1226"/>
      <point x="975" y="1050" type="curve" smooth="yes"/>
      <point x="975" y="765"/>
      <point x="341" y="427"/>
      <point x="225" y="397" type="curve"/>
      <point x="225" y="157"/>
      <point x="461" y="0"/>
      <point x="716" y="0" type="curve" smooth="yes"/>
      <point x="821" y="0"/>
      <point x="904" y="7"/>
      <point x="975" y="22" type="curve"/>
      <point x="975" y="-113" type="line" smooth="yes"/>
      <point x="975" y="-169"/>
      <point x="1005" y="-188"/>
      <point x="1050" y="-188" type="curve" smooth="yes"/>
      <point x="1331" y="-188" type="line"/>
      <point x="1286" y="-176"/>
      <point x="1275" y="-150"/>
      <point x="1275" y="-113" type="curve" smooth="yes"/>
      <point x="1275" y="487" type="line"/>
      <point x="975" y="487" type="line"/>
      <point x="975" y="232" type="line"/>
      <point x="915" y="180"/>
      <point x="832" y="150"/>
      <point x="754" y="150" type="curve" smooth="yes"/>
      <point x="634" y="150"/>
      <point x="547" y="232"/>
      <point x="525" y="311" type="curve"/>
      <point x="825" y="439"/>
      <point x="1275" y="667"/>
      <point x="1275" y="1027" type="curve" smooth="yes"/>
      <point x="1275" y="1301"/>
      <point x="1065" y="1440"/>
      <point x="720" y="1440" type="curve" smooth="yes"/>
      <point x="673" y="1440"/>
      <point x="625" y="1436"/>
      <point x="578" y="1428" type="curve"/>
    </contour>
  </outline>
</glyph>
<glyph name="uni17B6" format="2">
  <advance width="750"/>
  <unicode hex="17B6"/>
  <anchor x="562" y="0" name="L"/>
  <anchor x="562" y="1440" name="U"/>
  <anchor x="70" y="1440" name="um"/>
  <outline>
    <contour>
      <point x="-248" y="1178" type="line"/>
      <point x="-176" y="1247"/>
      <point x="-90" y="1290"/>
      <point x="45" y="1290" type="curve"/>
      <point x="164" y="1290"/>
      <point x="262" y="1197"/>
      <point x="262" y="1128" type="curve"/>
      <point x="262" y="0" type="line"/>
      <point x="562" y="0" type="line"/>
      <point x="562" y="1166" type="line"/>
      <point x="562" y="1264"/>
      <point x="317" y="1440"/>
      <point x="55" y="1440" type="curve"/>
      <point x="-125" y="1440"/>
      <point x="-263" y="1328"/>
      <point x="-326" y="1260" type="curve"/>
    </contour>
  </outline>
</glyph>
<glyph name="uni17C2" format="2">
  <advance width="750"/>
  <unicode hex="17C2"/>
  <outline>
    <contour>
      <point x="375" y="1912" type="curve" smooth="yes"/>
      <point x="375" y="1987"/>
      <point x="292" y="2021"/>
      <point x="236" y="2021" type="curve" smooth="yes"/>
      <point x="97" y="2021"/>
      <point x="14" y="1939"/>
      <point x="14" y="1864" type="curve" smooth="yes"/>
      <point x="14" y="1744"/>
      <point x="120" y="1590"/>
      <point x="360" y="1590" type="curve" smooth="yes"/>
      <point x="619" y="1590"/>
      <point x="787" y="1717"/>
      <point x="787" y="1950" type="curve" smooth="yes"/>
      <point x="787" y="2006"/>
      <point x="769" y="2059"/>
      <point x="732" y="2107" type="curve" smooth="yes"/>
      <point x="694" y="2156"/>
      <point x="634" y="2205"/>
      <point x="525" y="2205" type="curve" smooth="yes"/>
      <point x="472" y="2205"/>
      <point x="435" y="2164"/>
      <point x="435" y="2130" type="curve" smooth="yes"/>
      <point x="435" y="2077"/>
      <point x="454" y="2047"/>
      <point x="525" y="2006" type="curve" smooth="yes"/>
      <point x="551" y="1991"/>
      <point x="562" y="1965"/>
      <point x="562" y="1927" type="curve" smooth="yes"/>
      <point x="562" y="1879"/>
      <point x="547" y="1841"/>
      <point x="514" y="1800" type="curve"/>
      <point x="472" y="1755"/>
      <point x="424" y="1721"/>
      <point x="360" y="1721" type="curve" smooth="yes"/>
      <point x="311" y="1721"/>
      <point x="270" y="1759"/>
      <point x="266" y="1804" type="curve"/>
      <point x="326" y="1815"/>
      <point x="375" y="1856"/>
    </contour>
    <contour>
      <point x="562" y="485" type="line"/>
      <point x="562" y="870" type="line" smooth="yes"/>
      <point x="562" y="937"/>
      <point x="491" y="997"/>
      <point x="375" y="1057" type="curve" smooth="yes"/>
      <point x="322" y="1084"/>
      <point x="221" y="1144"/>
      <point x="221" y="1174" type="curve" smooth="yes"/>
      <point x="221" y="1207"/>
      <point x="244" y="1215"/>
      <point x="289" y="1215" type="curve" smooth="yes"/>
      <point x="379" y="1215"/>
      <point x="461" y="1125"/>
      <point x="540" y="1125" type="curve" smooth="yes"/>
      <point x="656" y="1125"/>
      <point x="720" y="1192"/>
      <point x="731" y="1399" type="curve"/>
      <point x="705" y="1365"/>
      <point x="634" y="1350"/>
      <point x="589" y="1350" type="curve" smooth="yes"/>
      <point x="502" y="1350"/>
      <point x="442" y="1440"/>
      <point x="311" y="1440" type="curve" smooth="yes"/>
      <point x="187" y="1440"/>
      <point x="94" y="1301"/>
      <point x="94" y="1181" type="curve" smooth="yes"/>
      <point x="94" y="1121"/>
      <point x="120" y="1072"/>
      <point x="214" y="1009" type="curve" smooth="yes"/>
      <point x="236" y="994"/>
      <point x="262" y="964"/>
      <point x="262" y="907" type="curve" smooth="yes"/>
      <point x="262" y="413" type="line"/>
    </contour>
    <contour>
      <point x="262" y="581" type="line"/>
      <point x="262" y="106" type="line"/>
      <point x="292" y="19"/>
      <point x="416" y="-3"/>
      <point x="502" y="-3" type="curve"/>
      <point x="701" y="34"/>
      <point x="787" y="199"/>
      <point x="787" y="289" type="curve" smooth="yes"/>
      <point x="787" y="399"/>
      <point x="671" y="452"/>
      <point x="562" y="467" type="curve"/>
      <point x="562" y="610" type="line"/>
    </contour>
    <contour>
      <point x="682" y="289" type="curve" smooth="yes"/>
      <point x="682" y="238"/>
      <point x="615" y="162"/>
      <point x="562" y="147" type="curve"/>
      <point x="562" y="381" type="line"/>
      <point x="610" y="379"/>
      <point x="682" y="344"/>
    </contour>
  </outline>
</glyph>
<glyph name="uni17CA" format="2">
  <unicode hex="17CA"/>
  <anchor x="-188" y="1889" name="U"/>
  <anchor x="-188" y="1440" name="_U"/>
  <anchor x="-713" y="1889" name="um"/>
  <outline>
    <contour>
      <point x="-713" y="1826" type="curve"/>
      <point x="-773" y="1886"/>
      <point x="-863" y="1909"/>
      <point x="-960" y="1909" type="curve"/>
      <point x="-1095" y="1909"/>
      <point x="-1185" y="1819"/>
      <point x="-1290" y="1819" type="curve" smooth="yes"/>
      <point x="-1328" y="1819"/>
      <point x="-1380" y="1822"/>
      <point x="-1425" y="1875" type="curve"/>
      <point x="-1418" y="1676"/>
      <point x="-1346" y="1627"/>
      <point x="-1226" y="1627" type="curve" smooth="yes"/>
      <point x="-1151" y="1627"/>
      <point x="-1043" y="1702"/>
      <point x="-964" y="1702" type="curve" smooth="yes"/>
      <point x="-885" y="1702"/>
      <point x="-791" y="1691"/>
      <point x="-713" y="1620" type="curve"/>
      <point x="-634" y="1691"/>
      <point x="-578" y="1702"/>
      <point x="-499" y="1702" type="curve"/>
      <point x="-420" y="1702"/>
      <point x="-311" y="1627"/>
      <point x="-236" y="1627" type="curve" smooth="yes"/>
      <point x="-116" y="1627"/>
      <point x="-45" y="1676"/>
      <point x="-38" y="1875" type="curve"/>
      <point x="-83" y="1822"/>
      <point x="-135" y="1819"/>
      <point x="-173" y="1819" type="curve"/>
      <point x="-278" y="1819"/>
      <point x="-368" y="1909"/>
      <point x="-503" y="1909" type="curve" smooth="yes"/>
      <point x="-600" y="1909"/>
      <point x="-653" y="1882"/>
    </contour>
  </outline>
</glyph>
<glyph name="uni17CC" format="2">
  <unicode hex="17CC"/>
  <anchor x="-188" y="2020" name="U"/>
  <anchor x="-713" y="1440" name="_um"/>
  <anchor x="-713" y="2020" name="um"/>
  <outline>
    <contour>
      <point x="-949" y="1496" type="curve"/>
      <point x="-780" y="1567" type="line"/>
      <point x="-810" y="1721"/>
      <point x="-1027" y="1721"/>
      <point x="-1027" y="1774" type="curve" smooth="yes"/>
      <point x="-1027" y="1815"/>
      <point x="-983" y="1882"/>
      <point x="-893" y="1882" type="curve" smooth="yes"/>
      <point x="-769" y="1882"/>
      <point x="-679" y="1728"/>
      <point x="-443" y="1728" type="curve" smooth="yes"/>
      <point x="-236" y="1728"/>
      <point x="-154" y="1845"/>
      <point x="-154" y="1965" type="curve" smooth="yes"/>
      <point x="-154" y="1999"/>
      <point x="-191" y="2040"/>
      <point x="-255" y="2040" type="curve" smooth="yes"/>
      <point x="-315" y="2040"/>
      <point x="-353" y="2006"/>
      <point x="-353" y="1976" type="curve" smooth="yes"/>
      <point x="-353" y="1942"/>
      <point x="-386" y="1886"/>
      <point x="-443" y="1886" type="curve" smooth="yes"/>
      <point x="-533" y="1886"/>
      <point x="-649" y="2040"/>
      <point x="-863" y="2040" type="curve" smooth="yes"/>
      <point x="-1129" y="2040"/>
      <point x="-1271" y="1905"/>
      <point x="-1271" y="1770" type="curve" smooth="yes"/>
      <point x="-1271" y="1560"/>
      <point x="-998" y="1646"/>
    </contour>
  </outline>
</glyph>
<glyph name="uni17D1" format="2">
  <unicode hex="17D1"/>
  <anchor x="-188" y="1757" name="U"/>
  <anchor x="-713" y="1440" name="_um"/>
  <anchor x="-713" y="1757" name="um"/>
  <outline>
    <contour>
      <point x="-1238" y="1590" type="line"/>
      <point x="-188" y="1590" type="line"/>
      <point x="-188" y="1777" type="line"/>
      <point x="-1238" y="1777" type="line"/>
    </contour>
  </outline>
</glyph>
<glyph name="uni17D5" format="2">
  <advance width="2731"/>
  <unicode hex="17D5"/>
  <outline>
    <contour>
      <point x="1406" y="0" type="line"/>
      <point x="1744" y="0" type="line"/>
      <point x="1744" y="1440" type="line"/>
      <point x="1406" y="1440" type="line"/>
      <point x="1399" y="1354"/>
      <point x="1316" y="1125"/>
      <point x="1215" y="1125" type="curve"/>
      <point x="1170" y="1125"/>
      <point x="1155" y="1174"/>
      <point x="1155" y="1215" type="curve"/>
      <point x="1204" y="1234"/>
      <point x="1290" y="1279"/>
      <point x="1290" y="1357" type="curve"/>
      <point x="1290" y="1421"/>
      <point x="1222" y="1477"/>
      <point x="1076" y="1477" type="curve"/>
      <point x="945" y="1477"/>
      <point x="825" y="1414"/>
      <point x="825" y="1241" type="curve"/>
      <point x="825" y="1091"/>
      <point x="949" y="971"/>
      <point x="1174" y="971" type="curve"/>
      <point x="1252" y="971"/>
      <point x="1342" y="1009"/>
      <point x="1406" y="1072" type="curve"/>
    </contour>
    <contour>
      <point x="1894" y="0" type="line"/>
      <point x="2231" y="0" type="line"/>
      <point x="2231" y="1440" type="line"/>
      <point x="1894" y="1440" type="line"/>
    </contour>
  </outline>
</glyph>
<glyph name="uni17D9" format="2">
  <advance width="1875"/>
  <unicode hex="17D9"/>
  <outline>
    <contour>
      <point x="975" y="1065" type="curve" smooth="yes"/>
      <point x="1001" y="1065"/>
      <point x="1012" y="1050"/>
      <point x="1012" y="1016" type="curve" smooth="yes"/>
      <point x="1012" y="427" type="line" smooth="yes"/>
      <point x="1012" y="394"/>
      <point x="1001" y="375"/>
      <point x="975" y="375" type="curve" smooth="yes"/>
      <point x="960" y="375"/>
      <point x="937" y="394"/>
      <point x="937" y="427" type="curve" smooth="yes"/>
      <point x="937" y="1016" type="line" smooth="yes"/>
      <point x="937" y="1050"/>
      <point x="960" y="1065"/>
    </contour>
    <contour>
      <point x="1125" y="1215" type="curve"/>
      <point x="806" y="1215" type="line" smooth="yes"/>
      <point x="694" y="1215"/>
      <point x="637" y="1166"/>
      <point x="637" y="1065" type="curve" smooth="yes"/>
      <point x="637" y="367" type="line" smooth="yes"/>
      <point x="637" y="274"/>
      <point x="675" y="225"/>
      <point x="806" y="225" type="curve" smooth="yes"/>
      <point x="1125" y="225" type="line" smooth="yes"/>
      <point x="1256" y="225"/>
      <point x="1312" y="292"/>
      <point x="1312" y="386" type="curve" smooth="yes"/>
      <point x="1312" y="1065" type="line" smooth="yes"/>
      <point x="1312" y="1166"/>
      <point x="1249" y="1215"/>
    </contour>
    <contour>
      <point x="750" y="1290" type="curve"/>
      <point x="1200" y="1290" type="line" smooth="yes"/>
      <point x="1316" y="1290"/>
      <point x="1387" y="1219"/>
      <point x="1387" y="1102" type="curve" smooth="yes"/>
      <point x="1387" y="337" type="line" smooth="yes"/>
      <point x="1387" y="221"/>
      <point x="1316" y="150"/>
      <point x="1200" y="150" type="curve" smooth="yes"/>
      <point x="750" y="150" type="line" smooth="yes"/>
      <point x="634" y="150"/>
      <point x="562" y="221"/>
      <point x="562" y="337" type="curve" smooth="yes"/>
      <point x="562" y="1102" type="line" smooth="yes"/>
      <point x="562" y="1219"/>
      <point x="634" y="1290"/>
    </contour>
    <contour>
      <point x="1335" y="1440" type="curve"/>
      <point x="619" y="1440" type="line" smooth="yes"/>
      <point x="409" y="1440"/>
      <point x="262" y="1327"/>
      <point x="262" y="1159" type="curve" smooth="yes"/>
      <point x="262" y="281" type="line" smooth="yes"/>
      <point x="262" y="112"/>
      <point x="405" y="0"/>
      <point x="619" y="0" type="curve" smooth="yes"/>
      <point x="1331" y="0" type="line" smooth="yes"/>
      <point x="1541" y="0"/>
      <point x="1687" y="112"/>
      <point x="1687" y="281" type="curve" smooth="yes"/>
      <point x="1687" y="1159" type="line" smooth="yes"/>
      <point x="1687" y="1327"/>
      <point x="1545" y="1440"/>
    </contour>
  </outline>
</glyph>
<glyph name="uni1EC3" format="2">
  <advance width="1055"/>
  <unicode hex="1EC3"/>
  <outline>
    <contour>
      <point x="532" y="-22" type="curve" smooth="yes"/>
      <point x="728" y="-22"/>
      <point x="929" y="153"/>
      <point x="985" y="365" type="curve"/>
      <point x="867" y="384" type="line"/>
      <point x="837" y="261"/>
      <point x="706" y="162"/>
      <point x="581" y="162" type="curve"/>
      <point x="428" y="162"/>
      <point x="319" y="347"/>
      <point x="313" y="583" type="curve"/>
      <point x="954" y="583" type="line"/>
      <point x="954" y="815"/>
      <point x="782" y="1004"/>
      <point x="532" y="1004" type="curve"/>
      <point x="253" y="1004"/>
      <point x="70" y="773"/>
      <point x="70" y="456" type="curve"/>
      <point x="70" y="195"/>
      <point x="277" y="-22"/>
    </contour>
    <contour>
      <point x="399" y="1470" type="line"/>
      <point x="171" y="1089" type="line"/>
      <point x="276" y="1089" type="line"/>
      <point x="525" y="1290" type="line"/>
      <point x="775" y="1089" type="line"/>
      <point x="883" y="1089" type="line"/>
      <point x="652" y="1470" type="line"/>
    </contour>
    <contour>
      <point x="482" y="896" type="curve" smooth="yes"/>
      <point x="578" y="896"/>
      <point x="656" y="795"/>
      <point x="664" y="672" type="curve"/>
      <point x="315" y="672" type="line"/>
      <point x="332" y="795"/>
      <point x="402" y="896"/>
    </contour>
    <contour>
      <point x="584" y="1570" type="line"/>
      <point x="584" y="1685"/>
      <point x="717" y="1699"/>
      <point x="717" y="1834" type="curve"/>
      <point x="717" y="1920"/>
      <point x="643" y="1970"/>
      <point x="540" y="1970" type="curve"/>
      <point x="463" y="1970"/>
      <point x="350" y="1931"/>
      <point x="350" y="1840" type="curve"/>
      <point x="350" y="1798"/>
      <point x="373" y="1761"/>
      <point x="435" y="1761" type="curve"/>
      <point x="484" y="1761"/>
      <point x="516" y="1791"/>
      <point x="516" y="1820" type="curve"/>
      <point x="516" y="1834"/>
      <point x="506" y="1849"/>
      <point x="490" y="1865" type="curve" smooth="yes"/>
      <point x="486" y="1869"/>
      <point x="483" y="1873"/>
      <point x="483" y="1882" type="curve"/>
      <point x="483" y="1892"/>
      <point x="497" y="1901"/>
      <point x="522" y="1901" type="curve"/>
      <point x="548" y="1901"/>
      <point x="565" y="1879"/>
      <point x="565" y="1829" type="curve"/>
      <point x="565" y="1709"/>
      <point x="469" y="1667"/>
      <point x="469" y="1570" type="curve"/>
    </contour>
  </outline>
</glyph>
<glyph name="bullet" format="2">
  <advance width="2400"/>
  <unicode hex="2022"/>
  <outline>
    <contour>
      <point x="600" y="500" type="curve" smooth="yes"/>
      <point x="600" y="224"/>
      <point x="824" y="0"/>
      <point x="1100" y="0" type="curve" smooth="yes"/>
      <point x="1376" y="0"/>
      <point x="1600" y="224"/>
      <point x="1600" y="500" type="curve" smooth="yes"/>
      <point x="1600" y="776"/>
      <point x="1376" y="1000"/>
      <point x="1100" y="1000" type="curve" smooth="yes"/>
      <point x="824" y="1000"/>
      <point x="600" y="776"/>
    </contour>
  </outline>
</glyph>
<glyph name="Omega" format="2">
  <advance width="1556"/>
  <unicode hex="2126"/>
  <outline>
    <contour>
      <point x="1486" y="850" type="curve" smooth="yes"/>
      <point x="1486" y="1210"/>
      <point x="1223" y="1451"/>
      <point x="778" y="1451" type="curve"/>
      <point x="334" y="1451"/>
      <point x="70" y="1210"/>
      <point x="70" y="850" type="curve"/>
      <point x="70" y="518"/>
      <point x="337" y="327"/>
      <point x="581" y="301" type="curve"/>
      <point x="581" y="235" type="line"/>
      <point x="322" y="235" type="line"/>
      <point x="275" y="235"/>
      <point x="201" y="270"/>
      <point x="172" y="371" type="curve"/>
      <point x="90" y="371" type="line"/>
      <point x="181" y="0" type="line"/>
      <point x="693" y="0" type="line"/>
      <point x="693" y="400" type="line"/>
      <point x="468" y="469"/>
      <point x="325" y="630"/>
      <point x="325" y="848" type="curve"/>
      <point x="325" y="850" type="line"/>
      <point x="325" y="1096"/>
      <point x="505" y="1342"/>
      <point x="778" y="1343" type="curve"/>
      <point x="1050" y="1343"/>
      <point x="1232" y="1096"/>
      <point x="1232" y="850" type="curve"/>
      <point x="1232" y="848" type="line"/>
      <point x="1232" y="630"/>
      <point x="1088" y="469"/>
      <point x="863" y="400" type="curve"/>
      <point x="863" y="0" type="line"/>
      <point x="1375" y="0" type="line"/>
      <point x="1466" y="371" type="line"/>
      <point x="1383" y="371" type="line"/>
      <point x="1355" y="270"/>
      <point x="1282" y="235"/>
      <point x="1236" y="235" type="curve"/>
      <point x="976" y="235" type="line"/>
      <point x="976" y="301" type="line"/>
      <point x="1217" y="327"/>
      <point x="1486" y="518"/>
    </contour>
  </outline>
</glyph>
<glyph name="summation" format="2">
  <advance width="1289"/>
  <unicode hex="2211"/>
  <outline>
    <contour>
      <point x="1269" y="431" type="line"/>
      <point x="1186" y="431" type="line"/>
      <point x="1168" y="304"/>
      <point x="1049" y="238"/>
      <point x="966" y="238" type="curve"/>
      <point x="455" y="238" type="line"/>
      <point x="984" y="770" type="line"/>
      <point x="454" y="1299" type="line"/>
      <point x="447" y="1305"/>
      <point x="443" y="1309"/>
      <point x="443" y="1310" type="curve"/>
      <point x="443" y="1312"/>
      <point x="454" y="1313"/>
      <point x="471" y="1313" type="curve"/>
      <point x="911" y="1313" type="line"/>
      <point x="1082" y="1313"/>
      <point x="1148" y="1220"/>
      <point x="1180" y="1055" type="curve"/>
      <point x="1255" y="1055" type="line"/>
      <point x="1233" y="1437" type="line"/>
      <point x="20" y="1437" type="line"/>
      <point x="740" y="721" type="line"/>
      <point x="20" y="0" type="line"/>
      <point x="1147" y="0" type="line"/>
    </contour>
  </outline>
</glyph>
<glyph name="hyphen.demo" format="2">
  <advance width="1425"/>
  <outline>
    <contour>
      <point x="1162" y="500" type="line"/>
      <point x="1162" y="720" type="line"/>
      <point x="412" y="720" type="line"/>
      <point x="412" y="500" type="line"/>
    </contour>
  </outline>
</glyph>
<glyph name="uni00D40306" format="2">
  <advance width="1579"/>
  <outline>
    <component base="O"/>
    <contour>
      <point x="702" y="1788" type="line"/>
      <point x="397" y="1494" type="line"/>
      <point x="483" y="1494" type="line"/>
      <point x="807" y="1607" type="line"/>
      <point x="1131" y="1494" type="line"/>
      <point x="1219" y="1494" type="line"/>
      <point x="912" y="1788" type="line"/>
    </contour>
    <contour>
      <point x="1123" y="2130" type="line"/>
      <point x="1102" y="2076"/>
      <point x="943" y="2015"/>
      <point x="807" y="2015" type="curve"/>
      <point x="671" y="2015"/>
      <point x="512" y="2076"/>
      <point x="491" y="2130" type="curve"/>
      <point x="417" y="2130" type="line"/>
      <point x="439" y="2020"/>
      <point x="598" y="1835"/>
      <point x="807" y="1835" type="curve"/>
      <point x="1016" y="1835"/>
      <point x="1175" y="2020"/>
      <point x="1197" y="2130" type="curve"/>
    </contour>
  </outline>
</glyph>
<glyph name="uni178317B6" format="2">
  <advance width="2888"/>
  <anchor x="1950" y="0" name="L"/>
  <anchor x="2700" y="0" name="L2"/>
  <anchor x="1950" y="1440" name="U"/>
  <anchor x="2700" y="1440" name="U2"/>
  <anchor x="1125" y="0" name="lm"/>
  <anchor x="1462" y="1440" name="um"/>
  <anchor x="2175" y="1440" name="um2"/>
  <outline>
    <contour>
      <point x="2700" y="1166" type="line" smooth="yes"/>
      <point x="2700" y="1264"/>
      <point x="2299" y="1440"/>
      <point x="1999" y="1440" type="curve" smooth="yes"/>
      <point x="1680" y="1440"/>
      <point x="1481" y="1320"/>
      <point x="1481" y="1181" type="curve" smooth="yes"/>
      <point x="1481" y="1121"/>
      <point x="1507" y="1072"/>
      <point x="1601" y="1009" type="curve" smooth="yes"/>
      <point x="1624" y="994"/>
      <point x="1650" y="964"/>
      <point x="1650" y="907" type="curve" smooth="yes"/>
      <point x="1650" y="206" type="line" smooth="yes"/>
      <point x="1650" y="161"/>
      <point x="1522" y="131"/>
      <point x="1462" y="131" type="curve" smooth="yes"/>
      <point x="1403" y="131"/>
      <point x="1281" y="159"/>
      <point x="1275" y="202" type="curve"/>
      <point x="1275" y="870" type="line" smooth="yes"/>
      <point x="1275" y="937"/>
      <point x="1204" y="997"/>
      <point x="1087" y="1057" type="curve" smooth="yes"/>
      <point x="1035" y="1084"/>
      <point x="934" y="1144"/>
      <point x="934" y="1174" type="curve" smooth="yes"/>
      <point x="934" y="1207"/>
      <point x="956" y="1215"/>
      <point x="1001" y="1215" type="curve" smooth="yes"/>
      <point x="1091" y="1215"/>
      <point x="1174" y="1125"/>
      <point x="1252" y="1125" type="curve" smooth="yes"/>
      <point x="1369" y="1125"/>
      <point x="1432" y="1192"/>
      <point x="1444" y="1399" type="curve"/>
      <point x="1417" y="1365"/>
      <point x="1346" y="1350"/>
      <point x="1301" y="1350" type="curve" smooth="yes"/>
      <point x="1215" y="1350"/>
      <point x="1155" y="1440"/>
      <point x="1024" y="1440" type="curve" smooth="yes"/>
      <point x="900" y="1440"/>
      <point x="806" y="1301"/>
      <point x="806" y="1181" type="curve" smooth="yes"/>
      <point x="806" y="1121"/>
      <point x="832" y="1072"/>
      <point x="926" y="1009" type="curve" smooth="yes"/>
      <point x="949" y="994"/>
      <point x="975" y="964"/>
      <point x="975" y="907" type="curve" smooth="yes"/>
      <point x="975" y="206" type="line" smooth="yes"/>
      <point x="975" y="161"/>
      <point x="847" y="131"/>
      <point x="787" y="131" type="curve" smooth="yes"/>
      <point x="727" y="131"/>
      <point x="600" y="161"/>
      <point x="600" y="206" type="curve" smooth="yes"/>
      <point x="600" y="1331" type="line"/>
      <point x="570" y="1417"/>
      <point x="446" y="1440"/>
      <point x="360" y="1440" type="curve"/>
      <point x="154" y="1395"/>
      <point x="75" y="1260"/>
      <point x="75" y="1177" type="curve" smooth="yes"/>
      <point x="75" y="1061"/>
      <point x="150" y="1012"/>
      <point x="187" y="1012" type="curve" smooth="yes"/>
      <point x="221" y="1012"/>
      <point x="244" y="1039"/>
      <point x="244" y="1057" type="curve" smooth="yes"/>
      <point x="244" y="1102"/>
      <point x="206" y="1114"/>
      <point x="206" y="1151" type="curve" smooth="yes"/>
      <point x="206" y="1192"/>
      <point x="262" y="1241"/>
      <point x="300" y="1252" type="curve"/>
      <point x="300" y="187" type="line" smooth="yes"/>
      <point x="300" y="94"/>
      <point x="581" y="0"/>
      <point x="787" y="0" type="curve" smooth="yes"/>
      <point x="896" y="0"/>
      <point x="1026" y="26"/>
      <point x="1125" y="65" type="curve"/>
      <point x="1223" y="26"/>
      <point x="1353" y="0"/>
      <point x="1462" y="0" type="curve" smooth="yes"/>
      <point x="1669" y="0"/>
      <point x="1950" y="94"/>
      <point x="1950" y="187" type="curve" smooth="yes"/>
      <point x="1950" y="870" type="line" smooth="yes"/>
      <point x="1950" y="937"/>
      <point x="1879" y="997"/>
      <point x="1762" y="1057" type="curve" smooth="yes"/>
      <point x="1710" y="1084"/>
      <point x="1609" y="1144"/>
      <point x="1609" y="1174" type="curve" smooth="yes"/>
      <point x="1609" y="1226"/>
      <point x="1740" y="1309"/>
      <point x="1999" y="1309" type="curve" smooth="yes"/>
      <point x="2220" y="1309"/>
      <point x="2400" y="1196"/>
      <point x="2400" y="1147" type="curve" smooth="yes"/>
      <point x="2400" y="0" type="line"/>
      <point x="2700" y="0" type="line"/>
    </contour>
  </outline>
</glyph>
<glyph name="uni178917C5.rightalt" format="2">
  <advance width="2888"/>
  <anchor x="1950" y="0" name="L"/>
  <anchor x="2700" y="0" name="L2"/>
  <anchor x="1950" y="1440" name="U"/>
  <anchor x="2700" y="1922" name="U2"/>
  <anchor x="1083" y="0" name="lm"/>
  <anchor x="1481" y="1440" name="um"/>
  <anchor x="2175" y="1922" name="um2"/>
  <outline>
    <contour>
      <point x="262" y="1170" type="curve"/>
      <point x="262" y="106" type="line"/>
      <point x="292" y="19"/>
      <point x="416" y="-3"/>
      <point x="502" y="-3" type="curve"/>
      <point x="701" y="34"/>
      <point x="787" y="199"/>
      <point x="787" y="289" type="curve" smooth="yes"/>
      <point x="787" y="399"/>
      <point x="671" y="452"/>
      <point x="562" y="467" type="curve"/>
      <point x="562" y="1125" type="line" smooth="yes"/>
      <point x="562" y="1159"/>
      <point x="570" y="1230"/>
      <point x="589" y="1230" type="curve" smooth="yes"/>
      <point x="622" y="1230"/>
      <point x="776" y="1072"/>
      <point x="787" y="1072" type="curve" smooth="yes"/>
      <point x="799" y="1072"/>
      <point x="952" y="1234"/>
      <point x="986" y="1234" type="curve" smooth="yes"/>
      <point x="1005" y="1234"/>
      <point x="1012" y="1159"/>
      <point x="1012" y="1125" type="curve" smooth="yes"/>
      <point x="1012" y="0" type="line"/>
      <point x="1312" y="0" type="line"/>
      <point x="1312" y="1215" type="line"/>
      <point x="1339" y="1264"/>
      <point x="1395" y="1305"/>
      <point x="1481" y="1305" type="curve" smooth="yes"/>
      <point x="1567" y="1305"/>
      <point x="1650" y="1241"/>
      <point x="1650" y="1159" type="curve" smooth="yes"/>
      <point x="1650" y="0" type="line"/>
      <point x="1950" y="0" type="line"/>
      <point x="1950" y="1185" type="line"/>
      <point x="1984" y="1237"/>
      <point x="2062" y="1309"/>
      <point x="2212" y="1309" type="curve" smooth="yes"/>
      <point x="2321" y="1309"/>
      <point x="2400" y="1196"/>
      <point x="2400" y="1147" type="curve" smooth="yes"/>
      <point x="2400" y="0" type="line"/>
      <point x="2700" y="0" type="line"/>
      <point x="2700" y="1166" type="line" smooth="yes"/>
      <point x="2700" y="1194"/>
      <point x="2681" y="1229"/>
      <point x="2648" y="1265" type="curve"/>
      <point x="2708" y="1371"/>
      <point x="2738" y="1503"/>
      <point x="2738" y="1609" type="curve" smooth="yes"/>
      <point x="2738" y="1695"/>
      <point x="2715" y="1800"/>
      <point x="2576" y="1897" type="curve"/>
      <point x="2531" y="1924"/>
      <point x="2482" y="1935"/>
      <point x="2441" y="1935" type="curve" smooth="yes"/>
      <point x="2340" y="1935"/>
      <point x="2295" y="1909"/>
      <point x="2295" y="1841" type="curve" smooth="yes"/>
      <point x="2295" y="1815"/>
      <point x="2310" y="1770"/>
      <point x="2359" y="1729" type="curve" smooth="yes"/>
      <point x="2411" y="1687"/>
      <point x="2438" y="1635"/>
      <point x="2438" y="1556" type="curve" smooth="yes"/>
      <point x="2438" y="1516"/>
      <point x="2424" y="1453"/>
      <point x="2412" y="1407" type="curve"/>
      <point x="2350" y="1427"/>
      <point x="2282" y="1440"/>
      <point x="2212" y="1440" type="curve" smooth="yes"/>
      <point x="2073" y="1440"/>
      <point x="1953" y="1366"/>
      <point x="1889" y="1303" type="curve"/>
      <point x="1802" y="1385"/>
      <point x="1635" y="1440"/>
      <point x="1481" y="1440" type="curve" smooth="yes"/>
      <point x="1365" y="1440"/>
      <point x="1264" y="1387"/>
      <point x="1192" y="1331" type="curve"/>
      <point x="1147" y="1372"/>
      <point x="1087" y="1440"/>
      <point x="1031" y="1440" type="curve" smooth="yes"/>
      <point x="979" y="1440"/>
      <point x="930" y="1406"/>
      <point x="877" y="1365" type="curve" smooth="yes"/>
      <point x="844" y="1339"/>
      <point x="810" y="1309"/>
      <point x="787" y="1286" type="curve"/>
      <point x="765" y="1309"/>
      <point x="731" y="1339"/>
      <point x="697" y="1365" type="curve" smooth="yes"/>
      <point x="645" y="1406"/>
      <point x="592" y="1440"/>
      <point x="544" y="1440" type="curve" smooth="yes"/>
      <point x="420" y="1440"/>
      <point x="262" y="1267"/>
    </contour>
    <contour>
      <point x="682" y="289" type="curve" smooth="yes"/>
      <point x="682" y="238"/>
      <point x="615" y="162"/>
      <point x="562" y="147" type="curve"/>
      <point x="562" y="381" type="line"/>
      <point x="610" y="379"/>
      <point x="682" y="344"/>
    </contour>
  </outline>
</glyph>
<glyph name="uni178F17C5.right" format="2">
  <advance width="2250"/>
  <anchor x="1312" y="0" name="L"/>
  <anchor x="2062" y="0" name="L2"/>
  <anchor x="1312" y="1440" name="U"/>
  <anchor x="2062" y="1922" name="U2"/>
  <anchor x="787" y="0" name="lm"/>
  <anchor x="787" y="1440" name="um"/>
  <anchor x="1537" y="1922" name="um2"/>
  <outline>
    <contour>
      <point x="262" y="916" type="curve"/>
      <point x="262" y="106" type="line"/>
      <point x="292" y="19"/>
      <point x="416" y="-3"/>
      <point x="502" y="-3" type="curve"/>
      <point x="701" y="34"/>
      <point x="787" y="199"/>
      <point x="787" y="289" type="curve" smooth="yes"/>
      <point x="787" y="399"/>
      <point x="671" y="452"/>
      <point x="562" y="467" type="curve"/>
      <point x="562" y="900" type="line" smooth="yes"/>
      <point x="562" y="956"/>
      <point x="694" y="994"/>
      <point x="787" y="994" type="curve" smooth="yes"/>
      <point x="881" y="994"/>
      <point x="1012" y="956"/>
      <point x="1012" y="900" type="curve" smooth="yes"/>
      <point x="1012" y="0" type="line"/>
      <point x="1312" y="0" type="line"/>
      <point x="1312" y="919" type="line" smooth="yes"/>
      <point x="1312" y="1031"/>
      <point x="1012" y="1125"/>
      <point x="787" y="1125" type="curve" smooth="yes"/>
      <point x="623" y="1125"/>
      <point x="421" y="1075"/>
      <point x="322" y="1005" type="curve"/>
      <point x="295" y="1025"/>
      <point x="262" y="1064"/>
      <point x="262" y="1099" type="curve" smooth="yes"/>
      <point x="262" y="1222"/>
      <point x="484" y="1234"/>
      <point x="529" y="1234" type="curve" smooth="yes"/>
      <point x="712" y="1234"/>
      <point x="904" y="1189"/>
      <point x="1012" y="1144" type="curve"/>
      <point x="1129" y="1215"/>
      <point x="1219" y="1252"/>
      <point x="1372" y="1252" type="curve" smooth="yes"/>
      <point x="1556" y="1252"/>
      <point x="1762" y="1140"/>
      <point x="1762" y="1091" type="curve" smooth="yes"/>
      <point x="1762" y="0" type="line"/>
      <point x="2062" y="0" type="line"/>
      <point x="2062" y="1166" type="line" smooth="yes"/>
      <point x="2062" y="1190"/>
      <point x="2040" y="1219"/>
      <point x="2002" y="1249" type="curve"/>
      <point x="2067" y="1358"/>
      <point x="2100" y="1497"/>
      <point x="2100" y="1609" type="curve" smooth="yes"/>
      <point x="2100" y="1695"/>
      <point x="2077" y="1800"/>
      <point x="1939" y="1897" type="curve"/>
      <point x="1894" y="1924"/>
      <point x="1845" y="1935"/>
      <point x="1804" y="1935" type="curve" smooth="yes"/>
      <point x="1702" y="1935"/>
      <point x="1657" y="1909"/>
      <point x="1657" y="1841" type="curve" smooth="yes"/>
      <point x="1657" y="1815"/>
      <point x="1672" y="1770"/>
      <point x="1722" y="1730" type="curve" smooth="yes"/>
      <point x="1774" y="1687"/>
      <point x="1800" y="1635"/>
      <point x="1800" y="1556" type="curve" smooth="yes"/>
      <point x="1800" y="1504"/>
      <point x="1780" y="1414"/>
      <point x="1763" y="1371" type="curve"/>
      <point x="1646" y="1411"/>
      <point x="1508" y="1440"/>
      <point x="1372" y="1440" type="curve" smooth="yes"/>
      <point x="1200" y="1440"/>
      <point x="1110" y="1406"/>
      <point x="1012" y="1350" type="curve"/>
      <point x="885" y="1406"/>
      <point x="709" y="1440"/>
      <point x="487" y="1440" type="curve" smooth="yes"/>
      <point x="292" y="1440"/>
      <point x="112" y="1324"/>
      <point x="112" y="1144" type="curve" smooth="yes"/>
      <point x="112" y="1046"/>
      <point x="180" y="961"/>
    </contour>
    <contour>
      <point x="682" y="289" type="curve" smooth="yes"/>
      <point x="682" y="238"/>
      <point x="615" y="162"/>
      <point x="562" y="147" type="curve"/>
      <point x="562" y="381" type="line"/>
      <point x="610" y="379"/>
      <point x="682" y="344"/>
    </contour>
  </outline>
</glyph>
<glyph name="uni179017B6" format="2">
  <advance width="2250"/>
  <anchor x="1312" y="0" name="L"/>
  <anchor x="2062" y="0" name="L2"/>
  <anchor x="1312" y="1743" name="U"/>
  <anchor x="2062" y="1440" name="U2"/>
  <anchor x="787" y="0" name="lm"/>
  <anchor x="787" y="1743" name="um"/>
  <anchor x="1650" y="1440" name="um2"/>
  <outline>
    <contour>
      <point x="1012" y="488" type="line"/>
      <point x="1012" y="225" type="line" smooth="yes"/>
      <point x="1012" y="169"/>
      <point x="881" y="131"/>
      <point x="787" y="131" type="curve" smooth="yes"/>
      <point x="694" y="131"/>
      <point x="562" y="169"/>
      <point x="562" y="225" type="curve" smooth="yes"/>
      <point x="562" y="1027" type="line"/>
      <point x="514" y="1027"/>
      <point x="281" y="1102"/>
      <point x="281" y="1181" type="curve" smooth="yes"/>
      <point x="281" y="1234"/>
      <point x="330" y="1252"/>
      <point x="375" y="1252" type="curve" smooth="yes"/>
      <point x="555" y="1252"/>
      <point x="746" y="1050"/>
      <point x="967" y="1050" type="curve" smooth="yes"/>
      <point x="1170" y="1050"/>
      <point x="1312" y="1207"/>
      <point x="1312" y="1372" type="curve" smooth="yes"/>
      <point x="1312" y="1462"/>
      <point x="1297" y="1515"/>
      <point x="1226" y="1601" type="curve" smooth="yes"/>
      <point x="1159" y="1684"/>
      <point x="1057" y="1740"/>
      <point x="934" y="1740" type="curve" smooth="yes"/>
      <point x="810" y="1740"/>
      <point x="784" y="1680"/>
      <point x="784" y="1627" type="curve" smooth="yes"/>
      <point x="784" y="1575"/>
      <point x="847" y="1519"/>
      <point x="960" y="1501" type="curve" smooth="yes"/>
      <point x="1016" y="1492"/>
      <point x="1125" y="1444"/>
      <point x="1125" y="1365" type="curve" smooth="yes"/>
      <point x="1125" y="1320"/>
      <point x="1050" y="1256"/>
      <point x="975" y="1256" type="curve" smooth="yes"/>
      <point x="795" y="1256"/>
      <point x="652" y="1440"/>
      <point x="431" y="1440" type="curve" smooth="yes"/>
      <point x="274" y="1440"/>
      <point x="131" y="1327"/>
      <point x="131" y="1196" type="curve" smooth="yes"/>
      <point x="131" y="1132"/>
      <point x="191" y="1061"/>
      <point x="262" y="1027" type="curve"/>
      <point x="262" y="206" type="line" smooth="yes"/>
      <point x="262" y="94"/>
      <point x="562" y="0"/>
      <point x="787" y="0" type="curve" smooth="yes"/>
      <point x="1012" y="0"/>
      <point x="1312" y="94"/>
      <point x="1312" y="206" type="curve" smooth="yes"/>
      <point x="1312" y="538" type="line"/>
    </contour>
    <contour>
      <point x="1312" y="842" type="line"/>
      <point x="1375" y="1100"/>
      <point x="1515" y="1309"/>
      <point x="1602" y="1309" type="curve" smooth="yes"/>
      <point x="1681" y="1309"/>
      <point x="1762" y="1216"/>
      <point x="1762" y="1167" type="curve" smooth="yes"/>
      <point x="1762" y="0" type="line"/>
      <point x="2062" y="0" type="line"/>
      <point x="2062" y="1186" type="line" smooth="yes"/>
      <point x="2062" y="1274"/>
      <point x="1854" y="1440"/>
      <point x="1652" y="1440" type="curve" smooth="yes"/>
      <point x="1372" y="1440"/>
      <point x="1257" y="1067"/>
      <point x="1224" y="947" type="curve"/>
    </contour>
    <contour>
      <point x="1312" y="391" type="line"/>
      <point x="1312" y="866" type="line"/>
      <point x="1282" y="953"/>
      <point x="1158" y="975"/>
      <point x="1072" y="975" type="curve"/>
      <point x="873" y="938"/>
      <point x="787" y="773"/>
      <point x="787" y="683" type="curve" smooth="yes"/>
      <point x="787" y="573"/>
      <point x="903" y="520"/>
      <point x="1012" y="505" type="curve"/>
      <point x="1012" y="362" type="line"/>
    </contour>
    <contour>
      <point x="892" y="683" type="curve" smooth="yes"/>
      <point x="892" y="734"/>
      <point x="959" y="810"/>
      <point x="1012" y="825" type="curve"/>
      <point x="1012" y="591" type="line"/>
      <point x="964" y="593"/>
      <point x="892" y="628"/>
    </contour>
  </outline>
</glyph>
<glyph name="uni179417C5.right" format="2">
  <advance width="2250"/>
  <anchor x="1312" y="-150" name="L"/>
  <anchor x="2062" y="0" name="L2"/>
  <anchor x="1312" y="1440" name="U"/>
  <anchor x="2062" y="1922" name="U2"/>
  <anchor x="787" y="-150" name="lm"/>
  <anchor x="787" y="1440" name="um"/>
  <anchor x="1537" y="1922" name="um2"/>
  <outline>
    <contour>
      <point x="2062" y="0" type="line"/>
      <point x="2062" y="1166" type="line" smooth="yes"/>
      <point x="2062" y="1190"/>
      <point x="2040" y="1219"/>
      <point x="2002" y="1249" type="curve"/>
      <point x="2067" y="1358"/>
      <point x="2100" y="1497"/>
      <point x="2100" y="1609" type="curve" smooth="yes"/>
      <point x="2100" y="1695"/>
      <point x="2077" y="1800"/>
      <point x="1939" y="1897" type="curve"/>
      <point x="1894" y="1924"/>
      <point x="1845" y="1935"/>
      <point x="1804" y="1935" type="curve" smooth="yes"/>
      <point x="1702" y="1935"/>
      <point x="1657" y="1909"/>
      <point x="1657" y="1841" type="curve" smooth="yes"/>
      <point x="1657" y="1815"/>
      <point x="1672" y="1770"/>
      <point x="1722" y="1730" type="curve" smooth="yes"/>
      <point x="1774" y="1687"/>
      <point x="1800" y="1635"/>
      <point x="1800" y="1556" type="curve" smooth="yes"/>
      <point x="1800" y="1504"/>
      <point x="1780" y="1414"/>
      <point x="1763" y="1371" type="curve"/>
      <point x="1646" y="1411"/>
      <point x="1508" y="1440"/>
      <point x="1372" y="1440" type="curve" smooth="yes"/>
      <point x="1214" y="1440"/>
      <point x="1095" y="1391"/>
      <point x="1001" y="1301" type="curve"/>
      <point x="892" y="1363"/>
      <point x="765" y="1440"/>
      <point x="510" y="1440" type="curve" smooth="yes"/>
      <point x="334" y="1440"/>
      <point x="135" y="1324"/>
      <point x="135" y="1155" type="curve" smooth="yes"/>
      <point x="135" y="1084"/>
      <point x="206" y="1020"/>
      <point x="262" y="982" type="curve"/>
      <point x="262" y="187" type="line" smooth="yes"/>
      <point x="262" y="94"/>
      <point x="581" y="0"/>
      <point x="787" y="0" type="curve" smooth="yes"/>
      <point x="843" y="0"/>
      <point x="949" y="7"/>
      <point x="1012" y="19" type="curve"/>
      <point x="1012" y="-150" type="line"/>
      <point x="1312" y="-150" type="line"/>
      <point x="1312" y="844" type="line"/>
      <point x="1012" y="844" type="line"/>
      <point x="1012" y="206" type="line" smooth="yes"/>
      <point x="1012" y="161"/>
      <point x="866" y="131"/>
      <point x="787" y="131" type="curve" smooth="yes"/>
      <point x="708" y="131"/>
      <point x="562" y="161"/>
      <point x="562" y="206" type="curve" smooth="yes"/>
      <point x="562" y="1020" type="line"/>
      <point x="525" y="1020"/>
      <point x="379" y="1057"/>
      <point x="379" y="1132" type="curve" smooth="yes"/>
      <point x="379" y="1204"/>
      <point x="469" y="1241"/>
      <point x="544" y="1241" type="curve" smooth="yes"/>
      <point x="772" y="1241"/>
      <point x="967" y="1129"/>
      <point x="1012" y="1091" type="curve"/>
      <point x="1072" y="1162"/>
      <point x="1184" y="1252"/>
      <point x="1372" y="1252" type="curve" smooth="yes"/>
      <point x="1556" y="1252"/>
      <point x="1762" y="1140"/>
      <point x="1762" y="1091" type="curve" smooth="yes"/>
      <point x="1762" y="0" type="line"/>
    </contour>
  </outline>
</glyph>
<glyph name="uni17B717CD" format="2">
  <anchor x="-188" y="2358" name="U"/>
  <anchor x="-188" y="1440" name="_U"/>
  <anchor x="-719" y="2358" name="um"/>
  <outline>
    <contour>
      <point x="-841" y="1672" type="curve" smooth="yes"/>
      <point x="-706" y="1672"/>
      <point x="-586" y="1646"/>
      <point x="-484" y="1622" type="curve" smooth="yes"/>
      <point x="-413" y="1605"/>
      <point x="-349" y="1590"/>
      <point x="-286" y="1590" type="curve" smooth="yes"/>
      <point x="-229" y="1590"/>
      <point x="-188" y="1639"/>
      <point x="-188" y="1676" type="curve" smooth="yes"/>
      <point x="-188" y="1687"/>
      <point x="-188" y="1702"/>
      <point x="-199" y="1725" type="curve"/>
      <point x="-211" y="1747"/>
      <point x="-226" y="1768"/>
      <point x="-243" y="1789" type="curve"/>
      <point x="-16" y="1789"/>
      <point x="82" y="1894"/>
      <point x="82" y="1972" type="curve" smooth="yes"/>
      <point x="82" y="2002"/>
      <point x="48" y="2055"/>
      <point x="-27" y="2055" type="curve" smooth="yes"/>
      <point x="-83" y="2055"/>
      <point x="-106" y="2036"/>
      <point x="-132" y="2002" type="curve"/>
      <point x="-143" y="1984"/>
      <point x="-169" y="1965"/>
      <point x="-211" y="1965" type="curve" smooth="yes"/>
      <point x="-244" y="1965"/>
      <point x="-278" y="1984"/>
      <point x="-278" y="2021" type="curve" smooth="yes"/>
      <point x="-278" y="2062"/>
      <point x="-256" y="2089"/>
      <point x="-196" y="2100" type="curve" smooth="yes"/>
      <point x="-1" y="2137"/>
      <point x="93" y="2182"/>
      <point x="93" y="2284" type="curve" smooth="yes"/>
      <point x="93" y="2392"/>
      <point x="-8" y="2488"/>
      <point x="-226" y="2500" type="curve"/>
      <point x="-177" y="2470"/>
      <point x="-143" y="2399"/>
      <point x="-143" y="2350" type="curve" smooth="yes"/>
      <point x="-143" y="2306"/>
      <point x="-173" y="2272"/>
      <point x="-286" y="2257" type="curve" smooth="yes"/>
      <point x="-447" y="2235"/>
      <point x="-518" y="2137"/>
      <point x="-518" y="2025" type="curve" smooth="yes"/>
      <point x="-518" y="2017"/>
      <point x="-517" y="2009"/>
      <point x="-516" y="2001" type="curve"/>
      <point x="-615" y="2049"/>
      <point x="-720" y="2077"/>
      <point x="-811" y="2077" type="curve" smooth="yes"/>
      <point x="-1024" y="2077"/>
      <point x="-1238" y="1950"/>
      <point x="-1238" y="1811" type="curve" smooth="yes"/>
      <point x="-1238" y="1721"/>
      <point x="-1159" y="1661"/>
      <point x="-1058" y="1661" type="curve" smooth="yes"/>
      <point x="-1017" y="1661"/>
      <point x="-972" y="1665"/>
      <point x="-927" y="1669" type="curve" smooth="yes"/>
      <point x="-893" y="1672"/>
      <point x="-859" y="1672"/>
    </contour>
    <contour>
      <point x="-822" y="1841" type="curve" smooth="yes"/>
      <point x="-882" y="1841"/>
      <point x="-904" y="1830"/>
      <point x="-946" y="1830" type="curve" smooth="yes"/>
      <point x="-961" y="1830"/>
      <point x="-976" y="1841"/>
      <point x="-976" y="1856" type="curve" smooth="yes"/>
      <point x="-976" y="1894"/>
      <point x="-893" y="1916"/>
      <point x="-799" y="1916" type="curve" smooth="yes"/>
      <point x="-687" y="1916"/>
      <point x="-589" y="1871"/>
      <point x="-507" y="1800" type="curve"/>
      <point x="-589" y="1822"/>
      <point x="-691" y="1841"/>
    </contour>
  </outline>
</glyph>
<glyph name="uni17BA.ms.high" format="2">
  <outline>
    <contour>
      <point x="-841" y="1962" type="curve" smooth="yes"/>
      <point x="-706" y="1962"/>
      <point x="-586" y="1936"/>
      <point x="-484" y="1912" type="curve" smooth="yes"/>
      <point x="-413" y="1895"/>
      <point x="-349" y="1880"/>
      <point x="-286" y="1880" type="curve" smooth="yes"/>
      <point x="-254" y="1880"/>
      <point x="-229" y="1896"/>
      <point x="-210" y="1914" type="curve"/>
      <point x="-124" y="2000"/>
      <point x="-98" y="2183"/>
      <point x="-98" y="2264" type="curve" smooth="yes"/>
      <point x="-98" y="2312"/>
      <point x="-103" y="2419"/>
      <point x="-169" y="2481" type="curve" smooth="yes"/>
      <point x="-210" y="2520"/>
      <point x="-259" y="2524"/>
      <point x="-289" y="2524" type="curve" smooth="yes"/>
      <point x="-331" y="2524"/>
      <point x="-391" y="2495"/>
      <point x="-391" y="2439" type="curve" smooth="yes"/>
      <point x="-391" y="2412"/>
      <point x="-386" y="2392"/>
      <point x="-372" y="2375" type="curve"/>
      <point x="-337" y="2335"/>
      <point x="-317" y="2277"/>
      <point x="-317" y="2218" type="curve" smooth="yes"/>
      <point x="-317" y="2200"/>
      <point x="-319" y="2181"/>
      <point x="-323" y="2163" type="curve"/>
      <point x="-363" y="2198"/>
      <point x="-408" y="2230"/>
      <point x="-455" y="2257" type="curve"/>
      <point x="-444" y="2303"/>
      <point x="-441" y="2377"/>
      <point x="-441" y="2409" type="curve" smooth="yes"/>
      <point x="-441" y="2457"/>
      <point x="-444" y="2517"/>
      <point x="-512" y="2566" type="curve" smooth="yes"/>
      <point x="-553" y="2596"/>
      <point x="-602" y="2604"/>
      <point x="-632" y="2604" type="curve" smooth="yes"/>
      <point x="-673" y="2604"/>
      <point x="-733" y="2585"/>
      <point x="-733" y="2529" type="curve" smooth="yes"/>
      <point x="-733" y="2502"/>
      <point x="-726" y="2484"/>
      <point x="-714" y="2465" type="curve"/>
      <point x="-685" y="2431"/>
      <point x="-673" y="2374"/>
      <point x="-668" y="2347" type="curve"/>
      <point x="-717" y="2360"/>
      <point x="-766" y="2367"/>
      <point x="-811" y="2367" type="curve" smooth="yes"/>
      <point x="-1024" y="2367"/>
      <point x="-1238" y="2240"/>
      <point x="-1238" y="2101" type="curve" smooth="yes"/>
      <point x="-1238" y="2011"/>
      <point x="-1159" y="1951"/>
      <point x="-1058" y="1951" type="curve" smooth="yes"/>
      <point x="-1017" y="1951"/>
      <point x="-972" y="1955"/>
      <point x="-927" y="1959" type="curve" smooth="yes"/>
      <point x="-893" y="1962"/>
      <point x="-859" y="1962"/>
    </contour>
    <contour>
      <point x="-822" y="2131" type="curve" smooth="yes"/>
      <point x="-882" y="2131"/>
      <point x="-904" y="2120"/>
      <point x="-946" y="2120" type="curve" smooth="yes"/>
      <point x="-961" y="2120"/>
      <point x="-976" y="2131"/>
      <point x="-976" y="2146" type="curve" smooth="yes"/>
      <point x="-976" y="2184"/>
      <point x="-893" y="2206"/>
      <point x="-799" y="2206" type="curve" smooth="yes"/>
      <point x="-687" y="2206"/>
      <point x="-589" y="2161"/>
      <point x="-507" y="2090" type="curve"/>
      <point x="-589" y="2112"/>
      <point x="-691" y="2131"/>
    </contour>
  </outline>
</glyph>
<glyph name="uni17BA.ms.narrowhigh2" format="2">
  <outline>
    <contour>
      <point x="-465" y="2193" type="curve" smooth="yes"/>
      <point x="-311" y="2193"/>
      <point x="-248" y="2110"/>
      <point x="-98" y="2110" type="curve" smooth="yes"/>
      <point x="-58" y="2110"/>
      <point x="-27" y="2133"/>
      <point x="-11" y="2160" type="curve"/>
      <point x="57" y="2261"/>
      <point x="90" y="2396"/>
      <point x="90" y="2502" type="curve" smooth="yes"/>
      <point x="90" y="2579"/>
      <point x="66" y="2643"/>
      <point x="30" y="2684" type="curve" smooth="yes"/>
      <point x="4" y="2714"/>
      <point x="-36" y="2730"/>
      <point x="-85" y="2730" type="curve" smooth="yes"/>
      <point x="-119" y="2730"/>
      <point x="-170" y="2707"/>
      <point x="-170" y="2666" type="curve" smooth="yes"/>
      <point x="-170" y="2636"/>
      <point x="-163" y="2617"/>
      <point x="-144" y="2595" type="curve" smooth="yes"/>
      <point x="-102" y="2545"/>
      <point x="-89" y="2504"/>
      <point x="-89" y="2403" type="curve" smooth="yes"/>
      <point x="-89" y="2389"/>
      <point x="-93" y="2363"/>
      <point x="-100" y="2350" type="curve"/>
      <point x="-140" y="2403"/>
      <point x="-181" y="2450"/>
      <point x="-225" y="2489" type="curve"/>
      <point x="-215" y="2535"/>
      <point x="-210" y="2581"/>
      <point x="-210" y="2622" type="curve" smooth="yes"/>
      <point x="-210" y="2699"/>
      <point x="-234" y="2763"/>
      <point x="-270" y="2804" type="curve" smooth="yes"/>
      <point x="-296" y="2834"/>
      <point x="-336" y="2850"/>
      <point x="-385" y="2850" type="curve" smooth="yes"/>
      <point x="-419" y="2850"/>
      <point x="-470" y="2827"/>
      <point x="-470" y="2786" type="curve" smooth="yes"/>
      <point x="-470" y="2756"/>
      <point x="-463" y="2737"/>
      <point x="-444" y="2715" type="curve" smooth="yes"/>
      <point x="-412" y="2677"/>
      <point x="-397" y="2644"/>
      <point x="-391" y="2586" type="curve"/>
      <point x="-418" y="2593"/>
      <point x="-445" y="2598"/>
      <point x="-473" y="2598" type="curve" smooth="yes"/>
      <point x="-649" y="2598"/>
      <point x="-788" y="2470"/>
      <point x="-788" y="2332" type="curve" smooth="yes"/>
      <point x="-788" y="2242"/>
      <point x="-709" y="2182"/>
      <point x="-608" y="2182" type="curve" smooth="yes"/>
      <point x="-544" y="2182"/>
      <point x="-525" y="2193"/>
    </contour>
    <contour>
      <point x="-435" y="2358" type="curve" smooth="yes"/>
      <point x="-461" y="2358"/>
      <point x="-476" y="2350"/>
      <point x="-495" y="2350" type="curve" smooth="yes"/>
      <point x="-510" y="2350"/>
      <point x="-525" y="2362"/>
      <point x="-525" y="2384" type="curve" smooth="yes"/>
      <point x="-525" y="2414"/>
      <point x="-499" y="2437"/>
      <point x="-461" y="2437" type="curve" smooth="yes"/>
      <point x="-386" y="2437"/>
      <point x="-326" y="2369"/>
      <point x="-304" y="2328" type="curve"/>
      <point x="-338" y="2350"/>
      <point x="-379" y="2358"/>
    </contour>
  </outline>
</glyph>
<glyph name="uni17CD.a" format="2">
  <outline>
    <contour>
      <point x="-559" y="1590" type="curve" smooth="yes"/>
      <point x="-353" y="1590"/>
      <point x="-236" y="1695"/>
      <point x="-236" y="1774" type="curve" smooth="yes"/>
      <point x="-236" y="1804"/>
      <point x="-278" y="1856"/>
      <point x="-353" y="1856" type="curve" smooth="yes"/>
      <point x="-409" y="1856"/>
      <point x="-439" y="1837"/>
      <point x="-465" y="1804" type="curve"/>
      <point x="-476" y="1785"/>
      <point x="-499" y="1766"/>
      <point x="-548" y="1766" type="curve" smooth="yes"/>
      <point x="-589" y="1766"/>
      <point x="-615" y="1804"/>
      <point x="-615" y="1849" type="curve" smooth="yes"/>
      <point x="-615" y="1897"/>
      <point x="-566" y="1946"/>
      <point x="-488" y="1957" type="curve"/>
      <point x="-293" y="1972"/>
      <point x="-131" y="2044"/>
      <point x="-131" y="2220" type="curve" smooth="yes"/>
      <point x="-131" y="2299"/>
      <point x="-233" y="2404"/>
      <point x="-450" y="2415" type="curve"/>
      <point x="-401" y="2374"/>
      <point x="-368" y="2321"/>
      <point x="-368" y="2250" type="curve" smooth="yes"/>
      <point x="-368" y="2171"/>
      <point x="-435" y="2126"/>
      <point x="-566" y="2114" type="curve" smooth="yes"/>
      <point x="-765" y="2096"/>
      <point x="-855" y="1965"/>
      <point x="-855" y="1826" type="curve" smooth="yes"/>
      <point x="-855" y="1695"/>
      <point x="-743" y="1590"/>
    </contour>
  </outline>
</glyph>
<glyph name="uni17CE.narrow" format="2">
  <anchor x="-188" y="2020" name="U"/>
  <anchor x="-339" y="1440" name="_um"/>
  <anchor x="-339" y="1970" name="um"/>
  <outline>
    <contour>
      <point x="-207" y="1590" type="line"/>
      <point x="-207" y="1740" type="line"/>
      <point x="-57" y="1740" type="line"/>
      <point x="-57" y="1946" type="line"/>
      <point x="-207" y="1946" type="line"/>
      <point x="-207" y="2096" type="line"/>
      <point x="-469" y="2096" type="line"/>
      <point x="-469" y="1946" type="line"/>
      <point x="-619" y="1946" type="line"/>
      <point x="-619" y="1740" type="line"/>
      <point x="-469" y="1740" type="line"/>
      <point x="-469" y="1590" type="line"/>
    </contour>
  </outline>
</glyph>
<glyph name="uni17CF.ms.narrowhigh2" format="2">
  <outline>
    <contour>
      <point x="-806" y="2331" type="curve" smooth="yes"/>
      <point x="-806" y="2196"/>
      <point x="-653" y="2110"/>
      <point x="-536" y="2110" type="curve"/>
      <point x="-443" y="2110"/>
      <point x="-394" y="2166"/>
      <point x="-353" y="2166" type="curve" smooth="yes"/>
      <point x="-326" y="2166"/>
      <point x="-281" y="2110"/>
      <point x="-180" y="2110" type="curve" smooth="yes"/>
      <point x="11" y="2110"/>
      <point x="94" y="2223"/>
      <point x="94" y="2324" type="curve" smooth="yes"/>
      <point x="94" y="2365"/>
      <point x="60" y="2433"/>
      <point x="-45" y="2433" type="curve" smooth="yes"/>
      <point x="-113" y="2433"/>
      <point x="-165" y="2410"/>
      <point x="-165" y="2369" type="curve" smooth="yes"/>
      <point x="-165" y="2358"/>
      <point x="-150" y="2343"/>
      <point x="-150" y="2331" type="curve" smooth="yes"/>
      <point x="-150" y="2301"/>
      <point x="-169" y="2286"/>
      <point x="-210" y="2286" type="curve" smooth="yes"/>
      <point x="-259" y="2286"/>
      <point x="-296" y="2354"/>
      <point x="-353" y="2354" type="curve" smooth="yes"/>
      <point x="-401" y="2354"/>
      <point x="-431" y="2294"/>
      <point x="-495" y="2294" type="curve" smooth="yes"/>
      <point x="-536" y="2294"/>
      <point x="-563" y="2328"/>
      <point x="-563" y="2369" type="curve" smooth="yes"/>
      <point x="-563" y="2433"/>
      <point x="-495" y="2459"/>
      <point x="-454" y="2459" type="curve" smooth="yes"/>
      <point x="-368" y="2459"/>
      <point x="-334" y="2421"/>
      <point x="-270" y="2421" type="curve" smooth="yes"/>
      <point x="-124" y="2421"/>
      <point x="37" y="2508"/>
      <point x="37" y="2624" type="curve" smooth="yes"/>
      <point x="37" y="2676"/>
      <point x="67" y="2718"/>
      <point x="94" y="2748" type="curve"/>
      <point x="75" y="2759"/>
      <point x="19" y="2766"/>
      <point x="-26" y="2766" type="curve"/>
      <point x="-146" y="2766"/>
      <point x="-206" y="2733"/>
      <point x="-206" y="2676" type="curve" smooth="yes"/>
      <point x="-206" y="2620"/>
      <point x="-229" y="2598"/>
      <point x="-308" y="2598" type="curve" smooth="yes"/>
      <point x="-364" y="2598"/>
      <point x="-405" y="2628"/>
      <point x="-491" y="2628" type="curve" smooth="yes"/>
      <point x="-653" y="2628"/>
      <point x="-806" y="2515"/>
    </contour>
  </outline>
</glyph>
<glyph name="uni17D2178317B6" format="2">
  <advance width="1500"/>
  <anchor x="562" y="-713" name="L"/>
  <anchor x="1312" y="0" name="L2"/>
  <anchor x="1312" y="1440" name="U"/>
  <anchor x="753" y="1440" name="um"/>
  <anchor x="753" y="1440" name="um2"/>
  <outline>
    <contour>
      <point x="262" y="907" type="curve"/>
      <point x="262" y="-506" type="line" smooth="yes"/>
      <point x="262" y="-551"/>
      <point x="191" y="-582"/>
      <point x="131" y="-582" type="curve" smooth="yes"/>
      <point x="71" y="-582"/>
      <point x="0" y="-566"/>
      <point x="0" y="-506" type="curve" smooth="yes"/>
      <point x="0" y="-465" type="line" smooth="yes"/>
      <point x="0" y="-394"/>
      <point x="-229" y="-375"/>
      <point x="-229" y="-319" type="curve" smooth="yes"/>
      <point x="-229" y="-297"/>
      <point x="-218" y="-289"/>
      <point x="-188" y="-289" type="curve" smooth="yes"/>
      <point x="-146" y="-289"/>
      <point x="-124" y="-360"/>
      <point x="-71" y="-360" type="curve" smooth="yes"/>
      <point x="15" y="-360"/>
      <point x="64" y="-315"/>
      <point x="71" y="-180" type="curve"/>
      <point x="49" y="-207"/>
      <point x="-4" y="-214"/>
      <point x="-38" y="-214" type="curve" smooth="yes"/>
      <point x="-94" y="-214"/>
      <point x="-116" y="-150"/>
      <point x="-195" y="-150" type="curve" smooth="yes"/>
      <point x="-289" y="-150"/>
      <point x="-353" y="-225"/>
      <point x="-353" y="-312" type="curve" smooth="yes"/>
      <point x="-353" y="-387"/>
      <point x="-282" y="-390"/>
      <point x="-282" y="-439" type="curve" smooth="yes"/>
      <point x="-282" y="-506" type="line" smooth="yes"/>
      <point x="-282" y="-551"/>
      <point x="-353" y="-582"/>
      <point x="-413" y="-582" type="curve" smooth="yes"/>
      <point x="-473" y="-582"/>
      <point x="-544" y="-551"/>
      <point x="-544" y="-506" type="curve" smooth="yes"/>
      <point x="-544" y="-233" type="line"/>
      <point x="-555" y="-169"/>
      <point x="-675" y="-150"/>
      <point x="-765" y="-150" type="curve"/>
      <point x="-878" y="-173"/>
      <point x="-954" y="-203"/>
      <point x="-954" y="-274" type="curve" smooth="yes"/>
      <point x="-954" y="-315"/>
      <point x="-909" y="-371"/>
      <point x="-826" y="-390" type="curve"/>
      <point x="-826" y="-533" type="line" smooth="yes"/>
      <point x="-826" y="-638"/>
      <point x="-623" y="-713"/>
      <point x="-413" y="-713" type="curve" smooth="yes"/>
      <point x="-304" y="-713"/>
      <point x="-214" y="-686"/>
      <point x="-150" y="-653" type="curve"/>
      <point x="-60" y="-686"/>
      <point x="22" y="-713"/>
      <point x="131" y="-713" type="curve" smooth="yes"/>
      <point x="337" y="-713"/>
      <point x="562" y="-626"/>
      <point x="562" y="-533" type="curve" smooth="yes"/>
      <point x="562" y="870" type="line" smooth="yes"/>
      <point x="562" y="937"/>
      <point x="491" y="997"/>
      <point x="375" y="1057" type="curve" smooth="yes"/>
      <point x="322" y="1084"/>
      <point x="221" y="1144"/>
      <point x="221" y="1174" type="curve" smooth="yes"/>
      <point x="221" y="1226"/>
      <point x="352" y="1309"/>
      <point x="611" y="1309" type="curve" smooth="yes"/>
      <point x="832" y="1309"/>
      <point x="1012" y="1196"/>
      <point x="1012" y="1147" type="curve" smooth="yes"/>
      <point x="1012" y="0" type="line"/>
      <point x="1312" y="0" type="line"/>
      <point x="1312" y="1166" type="line" smooth="yes"/>
      <point x="1312" y="1264"/>
      <point x="911" y="1440"/>
      <point x="611" y="1440" type="curve" smooth="yes"/>
      <point x="292" y="1440"/>
      <point x="94" y="1320"/>
      <point x="94" y="1181" type="curve" smooth="yes"/>
      <point x="94" y="1121"/>
      <point x="120" y="1072"/>
      <point x="214" y="1009" type="curve" smooth="yes"/>
      <point x="236" y="994"/>
      <point x="262" y="964"/>
    </contour>
  </outline>
</glyph>
<glyph name="uni17D21784.low" format="2">
  <anchor x="-188" y="-1238" name="L"/>
  <anchor x="-188" y="-713" name="_L"/>
  <anchor x="-639" y="-713" name="_lm"/>
  <anchor x="-639" y="-1238" name="lm"/>
  <outline>
    <contour>
      <point x="-661" y="-1238" type="curve" smooth="yes"/>
      <point x="-470" y="-1238"/>
      <point x="-354" y="-1170"/>
      <point x="-301" y="-1110" type="curve" smooth="yes"/>
      <point x="-235" y="-1033"/>
      <point x="-191" y="-945"/>
      <point x="-188" y="-769" type="curve"/>
      <point x="-319" y="-964"/>
      <point x="-472" y="-1088"/>
      <point x="-672" y="-1088" type="curve" smooth="yes"/>
      <point x="-792" y="-1088"/>
      <point x="-864" y="-1029"/>
      <point x="-864" y="-988" type="curve" smooth="yes"/>
      <point x="-864" y="-954"/>
      <point x="-852" y="-938"/>
      <point x="-830" y="-926" type="curve"/>
      <point x="-819" y="-953"/>
      <point x="-792" y="-1024"/>
      <point x="-695" y="-1024" type="curve" smooth="yes"/>
      <point x="-620" y="-1024"/>
      <point x="-567" y="-988"/>
      <point x="-567" y="-918" type="curve" smooth="yes"/>
      <point x="-567" y="-819"/>
      <point x="-717" y="-788"/>
      <point x="-819" y="-788" type="curve" smooth="yes"/>
      <point x="-1029" y="-788"/>
      <point x="-1089" y="-885"/>
      <point x="-1089" y="-971" type="curve" smooth="yes"/>
      <point x="-1089" y="-1133"/>
      <point x="-927" y="-1238"/>
    </contour>
  </outline>
</glyph>
<glyph name="uni17D21786" format="2">
  <anchor x="-188" y="-713" name="L"/>
  <anchor x="-188" y="0" name="_L"/>
  <anchor x="-685" y="0" name="_lm"/>
  <anchor x="-685" y="-713" name="lm"/>
  <outline>
    <contour>
      <point x="-1238" y="-555" type="curve" smooth="yes"/>
      <point x="-1238" y="-645"/>
      <point x="-1159" y="-713"/>
      <point x="-1013" y="-713" type="curve" smooth="yes"/>
      <point x="-938" y="-713"/>
      <point x="-844" y="-671"/>
      <point x="-818" y="-638" type="curve"/>
      <point x="-756" y="-679"/>
      <point x="-677" y="-713"/>
      <point x="-576" y="-713" type="curve" smooth="yes"/>
      <point x="-328" y="-713"/>
      <point x="-188" y="-615"/>
      <point x="-188" y="-450" type="curve" smooth="yes"/>
      <point x="-188" y="-394"/>
      <point x="-206" y="-252"/>
      <point x="-255" y="-200" type="curve" smooth="yes"/>
      <point x="-300" y="-151"/>
      <point x="-375" y="-140"/>
      <point x="-443" y="-140" type="curve" smooth="yes"/>
      <point x="-536" y="-140"/>
      <point x="-645" y="-177"/>
      <point x="-645" y="-271" type="curve" smooth="yes"/>
      <point x="-645" y="-357"/>
      <point x="-544" y="-404"/>
      <point x="-413" y="-404" type="curve"/>
      <point x="-410" y="-415"/>
      <point x="-409" y="-430"/>
      <point x="-409" y="-461" type="curve"/>
      <point x="-409" y="-548"/>
      <point x="-478" y="-572"/>
      <point x="-564" y="-572" type="curve" smooth="yes"/>
      <point x="-654" y="-572"/>
      <point x="-744" y="-529"/>
      <point x="-795" y="-484" type="curve"/>
      <point x="-795" y="-383"/>
      <point x="-818" y="-263"/>
      <point x="-866" y="-203" type="curve" smooth="yes"/>
      <point x="-893" y="-169"/>
      <point x="-975" y="-150"/>
      <point x="-1039" y="-150" type="curve" smooth="yes"/>
      <point x="-1114" y="-150"/>
      <point x="-1163" y="-180"/>
      <point x="-1163" y="-236" type="curve" smooth="yes"/>
      <point x="-1163" y="-285"/>
      <point x="-1125" y="-311"/>
      <point x="-1039" y="-319" type="curve"/>
      <point x="-1028" y="-338"/>
      <point x="-1021" y="-353"/>
      <point x="-1021" y="-370" type="curve" smooth="yes"/>
      <point x="-1021" y="-380"/>
      <point x="-1024" y="-390"/>
      <point x="-1028" y="-401" type="curve"/>
      <point x="-1185" y="-413"/>
      <point x="-1238" y="-491"/>
    </contour>
    <contour>
      <point x="-954" y="-559" type="curve"/>
      <point x="-969" y="-578"/>
      <point x="-993" y="-596"/>
      <point x="-1013" y="-596" type="curve" smooth="yes"/>
      <point x="-1043" y="-596"/>
      <point x="-1064" y="-578"/>
      <point x="-1064" y="-555" type="curve" smooth="yes"/>
      <point x="-1064" y="-535"/>
      <point x="-1044" y="-516"/>
      <point x="-1021" y="-516" type="curve" smooth="yes"/>
      <point x="-995" y="-516"/>
      <point x="-967" y="-541"/>
    </contour>
    <contour>
      <point x="-426" y="-307" type="curve"/>
      <point x="-470" y="-307"/>
      <point x="-506" y="-300"/>
      <point x="-506" y="-266" type="curve" smooth="yes"/>
      <point x="-506" y="-240"/>
      <point x="-490" y="-227"/>
      <point x="-468" y="-227" type="curve" smooth="yes"/>
      <point x="-444" y="-227"/>
      <point x="-431" y="-263"/>
    </contour>
  </outline>
  <guideline angle="328.617" x="-0" y="-1134"/>
  <guideline angle="97.4069" x="-465" y="-0"/>
</glyph>
<glyph name="uni17D21789.alt1" format="2">
  <anchor x="-188" y="-1163" name="L"/>
  <anchor x="-188" y="0" name="_L"/>
  <anchor x="-873" y="0" name="_lm"/>
  <anchor x="-873" y="-1163" name="lm"/>
  <outline>
    <contour>
      <point x="-1558" y="-630" type="line"/>
      <point x="-1547" y="-694"/>
      <point x="-1426" y="-713"/>
      <point x="-1336" y="-713" type="curve"/>
      <point x="-1224" y="-690"/>
      <point x="-1149" y="-660"/>
      <point x="-1149" y="-589" type="curve" smooth="yes"/>
      <point x="-1149" y="-548"/>
      <point x="-1194" y="-491"/>
      <point x="-1276" y="-473" type="curve"/>
      <point x="-1276" y="-341" type="line"/>
      <point x="-1239" y="-360"/>
      <point x="-1137" y="-439"/>
      <point x="-1107" y="-439" type="curve" smooth="yes"/>
      <point x="-1077" y="-439"/>
      <point x="-976" y="-360"/>
      <point x="-939" y="-341" type="curve"/>
      <point x="-939" y="-713" type="line"/>
      <point x="-657" y="-713" type="line"/>
      <point x="-657" y="-364" type="line" smooth="yes"/>
      <point x="-657" y="-319"/>
      <point x="-624" y="-281"/>
      <point x="-564" y="-281" type="curve" smooth="yes"/>
      <point x="-504" y="-281"/>
      <point x="-470" y="-319"/>
      <point x="-470" y="-364" type="curve" smooth="yes"/>
      <point x="-470" y="-713" type="line"/>
      <point x="-188" y="-713" type="line"/>
      <point x="-188" y="-345" type="line" smooth="yes"/>
      <point x="-188" y="-240"/>
      <point x="-339" y="-150"/>
      <point x="-564" y="-150" type="curve" smooth="yes"/>
      <point x="-654" y="-150"/>
      <point x="-732" y="-164"/>
      <point x="-793" y="-188" type="curve"/>
      <point x="-833" y="-165"/>
      <point x="-879" y="-150"/>
      <point x="-924" y="-150" type="curve" smooth="yes"/>
      <point x="-976" y="-150"/>
      <point x="-1062" y="-210"/>
      <point x="-1107" y="-247" type="curve"/>
      <point x="-1152" y="-210"/>
      <point x="-1242" y="-150"/>
      <point x="-1295" y="-150" type="curve" smooth="yes"/>
      <point x="-1426" y="-150"/>
      <point x="-1558" y="-278"/>
      <point x="-1558" y="-383" type="curve" smooth="yes"/>
    </contour>
    <contour>
      <point x="-548" y="-893" type="curve" smooth="yes"/>
      <point x="-548" y="-930"/>
      <point x="-522" y="-964"/>
      <point x="-488" y="-983" type="curve"/>
      <point x="-507" y="-987"/>
      <point x="-555" y="-994"/>
      <point x="-581" y="-994" type="curve" smooth="yes"/>
      <point x="-671" y="-994"/>
      <point x="-754" y="-964"/>
      <point x="-840" y="-915" type="curve" smooth="yes"/>
      <point x="-926" y="-866"/>
      <point x="-1005" y="-825"/>
      <point x="-1121" y="-825" type="curve" smooth="yes"/>
      <point x="-1309" y="-825"/>
      <point x="-1436" y="-1020"/>
      <point x="-1448" y="-1065" type="curve"/>
      <point x="-1331" y="-1001"/>
      <point x="-1268" y="-975"/>
      <point x="-1181" y="-975" type="curve" smooth="yes"/>
      <point x="-1095" y="-975"/>
      <point x="-1024" y="-1020"/>
      <point x="-938" y="-1061" type="curve" smooth="yes"/>
      <point x="-851" y="-1103"/>
      <point x="-765" y="-1163"/>
      <point x="-593" y="-1163" type="curve" smooth="yes"/>
      <point x="-364" y="-1163"/>
      <point x="-188" y="-1095"/>
      <point x="-188" y="-953" type="curve" smooth="yes"/>
      <point x="-188" y="-844"/>
      <point x="-251" y="-788"/>
      <point x="-379" y="-788" type="curve" smooth="yes"/>
      <point x="-484" y="-788"/>
      <point x="-548" y="-836"/>
    </contour>
  </outline>
</glyph>
<glyph name="uni17D2178B" format="2">
  <anchor x="-188" y="-598" name="L"/>
  <anchor x="-188" y="0" name="_L"/>
  <anchor x="-699" y="0" name="_lm"/>
  <anchor x="-699" y="-598" name="lm"/>
  <outline>
    <contour>
      <point x="-488" y="-169" type="line"/>
      <point x="-1100" y="-169" type="line"/>
      <point x="-1140" y="-169"/>
      <point x="-1149" y="-195"/>
      <point x="-1149" y="-236" type="curve" smooth="yes"/>
      <point x="-1149" y="-375"/>
      <point x="-1010" y="-600"/>
      <point x="-875" y="-600" type="curve" smooth="yes"/>
      <point x="-776" y="-600"/>
      <point x="-719" y="-540"/>
      <point x="-699" y="-540" type="curve" smooth="yes"/>
      <point x="-678" y="-540"/>
      <point x="-622" y="-600"/>
      <point x="-522" y="-600" type="curve" smooth="yes"/>
      <point x="-384" y="-600"/>
      <point x="-248" y="-503"/>
      <point x="-248" y="-371" type="curve" smooth="yes"/>
      <point x="-248" y="-310" type="line"/>
      <point x="-158" y="-310" type="line"/>
      <point x="-158" y="-169" type="line"/>
      <point x="-248" y="-169" type="line"/>
      <point x="-248" y="-56" type="line"/>
      <point x="-488" y="-56" type="line"/>
    </contour>
    <contour>
      <point x="-488" y="-310" type="line"/>
      <point x="-488" y="-356" type="line"/>
      <point x="-488" y="-400"/>
      <point x="-505" y="-450"/>
      <point x="-552" y="-450" type="curve" smooth="yes"/>
      <point x="-619" y="-450"/>
      <point x="-652" y="-390"/>
      <point x="-699" y="-390" type="curve" smooth="yes"/>
      <point x="-746" y="-390"/>
      <point x="-778" y="-450"/>
      <point x="-845" y="-450" type="curve" smooth="yes"/>
      <point x="-886" y="-450"/>
      <point x="-944" y="-385"/>
      <point x="-944" y="-336" type="curve" smooth="yes"/>
      <point x="-944" y="-317"/>
      <point x="-937" y="-310"/>
      <point x="-927" y="-310" type="curve" smooth="yes"/>
    </contour>
  </outline>
  <guideline angle="90" x="-488" y="0"/>
</glyph>
<glyph name="uni17D2179917B6.low" format="2">
  <advance width="1500"/>
  <anchor x="562" y="-1238" name="L"/>
  <anchor x="1312" y="0" name="L2"/>
  <anchor x="1312" y="1440" name="U"/>
  <anchor x="753" y="1440" name="um"/>
  <anchor x="753" y="1440" name="um2"/>
  <outline>
    <contour>
      <point x="1312" y="1166" type="line" smooth="yes"/>
      <point x="1312" y="1264"/>
      <point x="911" y="1440"/>
      <point x="611" y="1440" type="curve" smooth="yes"/>
      <point x="292" y="1440"/>
      <point x="94" y="1320"/>
      <point x="94" y="1181" type="curve" smooth="yes"/>
      <point x="94" y="1121"/>
      <point x="120" y="1072"/>
      <point x="214" y="1009" type="curve" smooth="yes"/>
      <point x="236" y="994"/>
      <point x="262" y="964"/>
      <point x="262" y="907" type="curve" smooth="yes"/>
      <point x="262" y="-1031" type="line" smooth="yes"/>
      <point x="262" y="-1076"/>
      <point x="97" y="-1107"/>
      <point x="37" y="-1107" type="curve" smooth="yes"/>
      <point x="-23" y="-1107"/>
      <point x="-188" y="-1076"/>
      <point x="-188" y="-1031" type="curve" smooth="yes"/>
      <point x="-188" y="-990" type="line"/>
      <point x="-139" y="-971"/>
      <point x="-94" y="-941"/>
      <point x="-94" y="-904" type="curve" smooth="yes"/>
      <point x="-94" y="-829"/>
      <point x="-150" y="-806"/>
      <point x="-248" y="-788" type="curve"/>
      <point x="-341" y="-788"/>
      <point x="-476" y="-806"/>
      <point x="-488" y="-874" type="curve"/>
      <point x="-488" y="-1050" type="line" smooth="yes"/>
      <point x="-488" y="-1144"/>
      <point x="-169" y="-1238"/>
      <point x="37" y="-1238" type="curve" smooth="yes"/>
      <point x="244" y="-1238"/>
      <point x="562" y="-1144"/>
      <point x="562" y="-1050" type="curve" smooth="yes"/>
      <point x="562" y="870" type="line" smooth="yes"/>
      <point x="562" y="937"/>
      <point x="491" y="997"/>
      <point x="375" y="1057" type="curve" smooth="yes"/>
      <point x="322" y="1084"/>
      <point x="221" y="1144"/>
      <point x="221" y="1174" type="curve" smooth="yes"/>
      <point x="221" y="1226"/>
      <point x="352" y="1309"/>
      <point x="611" y="1309" type="curve" smooth="yes"/>
      <point x="832" y="1309"/>
      <point x="1012" y="1196"/>
      <point x="1012" y="1147" type="curve" smooth="yes"/>
      <point x="1012" y="0" type="line"/>
      <point x="1312" y="0" type="line"/>
    </contour>
  </outline>
</glyph>
<glyph name="uni17D217A0.low" format="2">
  <anchor x="-188" y="-1238" name="L"/>
  <anchor x="-188" y="-713" name="_L"/>
  <anchor x="-715" y="-713" name="_lm"/>
  <anchor x="-715" y="-1238" name="lm"/>
  <outline>
    <contour>
      <point x="-1294" y="-1035" type="line"/>
      <point x="-1294" y="-1140"/>
      <point x="-1157" y="-1238"/>
      <point x="-947" y="-1238" type="curve" smooth="yes"/>
      <point x="-737" y="-1238"/>
      <point x="-600" y="-1140"/>
      <point x="-600" y="-1035" type="curve" smooth="yes"/>
      <point x="-600" y="-975" type="line" smooth="yes"/>
      <point x="-600" y="-930"/>
      <point x="-565" y="-919"/>
      <point x="-535" y="-919" type="curve" smooth="yes"/>
      <point x="-505" y="-919"/>
      <point x="-470" y="-930"/>
      <point x="-470" y="-975" type="curve" smooth="yes"/>
      <point x="-470" y="-1238" type="line"/>
      <point x="-188" y="-1238" type="line"/>
      <point x="-188" y="-979" type="line"/>
      <point x="-188" y="-874"/>
      <point x="-325" y="-788"/>
      <point x="-535" y="-788" type="curve" smooth="yes"/>
      <point x="-745" y="-788"/>
      <point x="-882" y="-874"/>
      <point x="-882" y="-979" type="curve" smooth="yes"/>
      <point x="-882" y="-1050" type="line" smooth="yes"/>
      <point x="-882" y="-1095"/>
      <point x="-917" y="-1106"/>
      <point x="-947" y="-1106" type="curve" smooth="yes"/>
      <point x="-977" y="-1106"/>
      <point x="-1012" y="-1095"/>
      <point x="-1012" y="-1050" type="curve" smooth="yes"/>
      <point x="-1012" y="-806" type="line"/>
      <point x="-1294" y="-806" type="line"/>
    </contour>
  </outline>
</glyph>
<glyph name="uni17D217A2.low.alt" format="2">
  <anchor x="-188" y="-1238" name="L"/>
  <anchor x="-188" y="-713" name="_L"/>
  <anchor x="-582" y="-713" name="_lm"/>
  <anchor x="-582" y="-1238" name="lm"/>
  <outline>
    <contour>
      <point x="-188" y="-788" type="line"/>
      <point x="-450" y="-788" type="line"/>
      <point x="-450" y="-884" type="line"/>
      <point x="-675" y="-884" type="line"/>
      <point x="-675" y="-788" type="line"/>
      <point x="-937" y="-788" type="line"/>
      <point x="-937" y="-998" type="line"/>
      <point x="-1020" y="-1016"/>
      <point x="-1063" y="-1073"/>
      <point x="-1063" y="-1114" type="curve" smooth="yes"/>
      <point x="-1063" y="-1185"/>
      <point x="-998" y="-1225"/>
      <point x="-885" y="-1238" type="curve"/>
      <point x="-795" y="-1238"/>
      <point x="-686" y="-1219"/>
      <point x="-675" y="-1155" type="curve"/>
      <point x="-675" y="-1015" type="line"/>
      <point x="-500" y="-1015" type="line"/>
      <point x="-554" y="-1040"/>
      <point x="-587" y="-1082"/>
      <point x="-587" y="-1114" type="curve" smooth="yes"/>
      <point x="-587" y="-1185"/>
      <point x="-522" y="-1225"/>
      <point x="-409" y="-1238" type="curve"/>
      <point x="-319" y="-1238"/>
      <point x="-199" y="-1219"/>
      <point x="-188" y="-1155" type="curve"/>
    </contour>
  </outline>
</glyph>
<glyph name="uni17D3.ms.high" format="2">
  <outline>
    <contour>
      <point x="-900" y="2143" type="curve" smooth="yes"/>
      <point x="-900" y="1993"/>
      <point x="-784" y="1880"/>
      <point x="-638" y="1880" type="curve"/>
      <point x="-375" y="1880" type="line"/>
      <point x="-229" y="1880"/>
      <point x="-113" y="1974"/>
      <point x="-113" y="2143" type="curve"/>
      <point x="-113" y="2312"/>
      <point x="-229" y="2405"/>
      <point x="-375" y="2405" type="curve"/>
      <point x="-638" y="2405" type="line"/>
      <point x="-784" y="2405"/>
      <point x="-900" y="2293"/>
    </contour>
    <contour>
      <point x="-675" y="2143" type="curve" smooth="yes"/>
      <point x="-675" y="2207"/>
      <point x="-619" y="2255"/>
      <point x="-551" y="2255" type="curve"/>
      <point x="-461" y="2255" type="line"/>
      <point x="-394" y="2255"/>
      <point x="-338" y="2207"/>
      <point x="-338" y="2143" type="curve"/>
      <point x="-338" y="2079"/>
      <point x="-394" y="2030"/>
      <point x="-461" y="2030" type="curve"/>
      <point x="-551" y="2030" type="line"/>
      <point x="-619" y="2030"/>
      <point x="-675" y="2079"/>
    </contour>
  </outline>
</glyph>
<glyph name="uni17D4.alt2" format="2">
  <advance width="1606"/>
  <outline>
    <contour>
      <point x="731" y="0" type="line"/>
      <point x="1106" y="0" type="line"/>
      <point x="1106" y="1440" type="line"/>
      <point x="731" y="1440" type="line"/>
      <point x="731" y="1354"/>
      <point x="645" y="1129"/>
      <point x="544" y="1129" type="curve"/>
      <point x="491" y="1129"/>
      <point x="472" y="1174"/>
      <point x="472" y="1200" type="curve"/>
      <point x="547" y="1222"/>
      <point x="615" y="1271"/>
      <point x="615" y="1350" type="curve"/>
      <point x="615" y="1425"/>
      <point x="547" y="1496"/>
      <point x="412" y="1496" type="curve"/>
      <point x="281" y="1496"/>
      <point x="150" y="1414"/>
      <point x="150" y="1237" type="curve"/>
      <point x="150" y="1106"/>
      <point x="285" y="971"/>
      <point x="484" y="971" type="curve"/>
      <point x="570" y="971"/>
      <point x="664" y="1009"/>
      <point x="731" y="1069" type="curve"/>
    </contour>
  </outline>
</glyph>
<glyph name="uni17DD.a" format="2">
  <outline>
    <contour>
      <point x="-150" y="1590" type="curve"/>
      <point x="-161" y="1879"/>
      <point x="-330" y="2098"/>
      <point x="-716" y="2098" type="curve" smooth="yes"/>
      <point x="-956" y="2098"/>
      <point x="-1155" y="1989"/>
      <point x="-1155" y="1798" type="curve" smooth="yes"/>
      <point x="-1155" y="1712"/>
      <point x="-1099" y="1648"/>
      <point x="-986" y="1648" type="curve" smooth="yes"/>
      <point x="-881" y="1648"/>
      <point x="-821" y="1697"/>
      <point x="-821" y="1753" type="curve" smooth="yes"/>
      <point x="-821" y="1779"/>
      <point x="-840" y="1821"/>
      <point x="-874" y="1851" type="curve"/>
      <point x="-840" y="1896"/>
      <point x="-773" y="1929"/>
      <point x="-671" y="1929" type="curve" smooth="yes"/>
      <point x="-458" y="1929"/>
      <point x="-229" y="1729"/>
    </contour>
  </outline>
</glyph>
<glyph name="uni2006.showinv" format="2">
  <advance width="341"/>
  <outline>
    <contour>
      <point x="60" y="486" type="curve" smooth="yes"/>
      <point x="120" y="486"/>
      <point x="162" y="553"/>
      <point x="162" y="646" type="curve" smooth="yes"/>
      <point x="162" y="732"/>
      <point x="120" y="803"/>
      <point x="60" y="803" type="curve" smooth="yes"/>
      <point x="-1" y="803"/>
      <point x="-42" y="732"/>
      <point x="-42" y="646" type="curve" smooth="yes"/>
      <point x="-42" y="553"/>
      <point x="-1" y="486"/>
    </contour>
    <contour>
      <point x="60" y="500" type="curve" smooth="yes"/>
      <point x="23" y="500"/>
      <point x="5" y="569"/>
      <point x="5" y="646" type="curve" smooth="yes"/>
      <point x="5" y="722"/>
      <point x="23" y="788"/>
      <point x="60" y="788" type="curve" smooth="yes"/>
      <point x="97" y="788"/>
      <point x="115" y="722"/>
      <point x="115" y="646" type="curve" smooth="yes"/>
      <point x="115" y="569"/>
      <point x="97" y="500"/>
    </contour>
    <contour>
      <point x="0" y="-39" type="line"/>
      <point x="341" y="-39" type="line"/>
      <point x="341" y="98" type="line"/>
      <point x="301" y="98" type="line"/>
      <point x="301" y="0" type="line"/>
      <point x="39" y="0" type="line"/>
      <point x="39" y="98" type="line"/>
      <point x="0" y="98" type="line"/>
    </contour>
    <contour>
      <point x="25" y="226" type="line"/>
      <point x="100" y="226" type="line"/>
      <point x="100" y="233" type="line"/>
      <point x="80" y="233"/>
      <point x="76" y="236"/>
      <point x="76" y="250" type="curve" smooth="yes"/>
      <point x="76" y="386" type="line"/>
      <point x="67" y="386" type="line"/>
      <point x="20" y="366" type="line"/>
      <point x="25" y="360" type="line"/>
      <point x="29" y="361"/>
      <point x="34" y="363"/>
      <point x="39" y="363" type="curve" smooth="yes"/>
      <point x="46" y="363"/>
      <point x="47" y="360"/>
      <point x="47" y="340" type="curve" smooth="yes"/>
      <point x="47" y="250" type="line" smooth="yes"/>
      <point x="47" y="236"/>
      <point x="44" y="233"/>
      <point x="25" y="233" type="curve"/>
    </contour>
    <contour>
      <point x="284" y="386" type="line"/>
      <point x="263" y="386" type="line"/>
      <point x="46" y="65" type="line"/>
      <point x="67" y="65" type="line"/>
    </contour>
    <contour>
      <point x="384" y="803" type="line"/>
      <point x="272" y="803"/>
      <point x="198" y="712"/>
      <point x="198" y="607" type="curve" smooth="yes"/>
      <point x="198" y="540"/>
      <point x="238" y="486"/>
      <point x="295" y="486" type="curve" smooth="yes"/>
      <point x="349" y="486"/>
      <point x="393" y="534"/>
      <point x="393" y="593" type="curve" smooth="yes"/>
      <point x="393" y="643"/>
      <point x="358" y="684"/>
      <point x="313" y="684" type="curve" smooth="yes"/>
      <point x="286" y="684"/>
      <point x="266" y="674"/>
      <point x="248" y="659" type="curve"/>
      <point x="262" y="729"/>
      <point x="318" y="788"/>
      <point x="384" y="795" type="curve"/>
    </contour>
    <contour>
      <point x="247" y="646" type="curve"/>
      <point x="260" y="657"/>
      <point x="279" y="664"/>
      <point x="293" y="664" type="curve" smooth="yes"/>
      <point x="325" y="664"/>
      <point x="351" y="622"/>
      <point x="351" y="572" type="curve" smooth="yes"/>
      <point x="351" y="533"/>
      <point x="329" y="500"/>
      <point x="301" y="500" type="curve" smooth="yes"/>
      <point x="262" y="500"/>
      <point x="244" y="550"/>
      <point x="244" y="605" type="curve" smooth="yes"/>
      <point x="244" y="619"/>
      <point x="245" y="632"/>
    </contour>
    <contour>
      <point x="291" y="235" type="line"/>
      <point x="234" y="235"/>
      <point x="197" y="189"/>
      <point x="197" y="137" type="curve" smooth="yes"/>
      <point x="197" y="102"/>
      <point x="218" y="76"/>
      <point x="246" y="76" type="curve" smooth="yes"/>
      <point x="273" y="76"/>
      <point x="295" y="100"/>
      <point x="295" y="130" type="curve" smooth="yes"/>
      <point x="295" y="155"/>
      <point x="278" y="175"/>
      <point x="256" y="175" type="curve" smooth="yes"/>
      <point x="241" y="175"/>
      <point x="231" y="170"/>
      <point x="222" y="164" type="curve"/>
      <point x="229" y="198"/>
      <point x="258" y="229"/>
      <point x="291" y="231" type="curve"/>
    </contour>
    <contour>
      <point x="222" y="157" type="curve"/>
      <point x="229" y="162"/>
      <point x="237" y="165"/>
      <point x="244" y="165" type="curve" smooth="yes"/>
      <point x="261" y="165"/>
      <point x="274" y="145"/>
      <point x="274" y="119" type="curve" smooth="yes"/>
      <point x="274" y="99"/>
      <point x="263" y="84"/>
      <point x="248" y="84" type="curve" smooth="yes"/>
      <point x="229" y="84"/>
      <point x="221" y="108"/>
      <point x="221" y="136" type="curve" smooth="yes"/>
      <point x="221" y="142"/>
      <point x="221" y="150"/>
    </contour>
  </outline>
</glyph>
<glyph name="uni200B.narrowattmptlow" format="2">
  <anchor x="-188" y="-1238" name="L"/>
  <outline>
    <contour>
      <point x="-263" y="82" type="line"/>
      <point x="-270" y="82" type="line"/>
      <point x="-270" y="75" type="line"/>
      <point x="-263" y="75" type="line"/>
    </contour>
  </outline>
</glyph>
